%TF.GenerationSoftware,KiCad,Pcbnew,9.0.7*%
%TF.CreationDate,2026-02-14T16:35:21+02:00*%
%TF.ProjectId,Nano_Blackbox_Telemetry,4e616e6f-5f42-46c6-9163-6b626f785f54,rev?*%
%TF.SameCoordinates,Original*%
%TF.FileFunction,Copper,L2,Bot*%
%TF.FilePolarity,Positive*%
%FSLAX46Y46*%
G04 Gerber Fmt 4.6, Leading zero omitted, Abs format (unit mm)*
G04 Created by KiCad (PCBNEW 9.0.7) date 2026-02-14 16:35:21*
%MOMM*%
%LPD*%
G01*
G04 APERTURE LIST*
%TA.AperFunction,Conductor*%
%ADD10C,0.200000*%
%TD*%
%TA.AperFunction,ComponentPad*%
%ADD11O,1.600000X1.600000*%
%TD*%
%TA.AperFunction,ComponentPad*%
%ADD12R,1.600000X1.600000*%
%TD*%
%TA.AperFunction,ComponentPad*%
%ADD13R,1.700000X1.700000*%
%TD*%
%TA.AperFunction,ComponentPad*%
%ADD14C,1.700000*%
%TD*%
%TA.AperFunction,ViaPad*%
%ADD15C,0.600000*%
%TD*%
G04 APERTURE END LIST*
D10*
%TO.N,/SD_CS*%
X134400000Y-101600000D02*
X136800000Y-101600000D01*
%TO.N,/SCL*%
X157600000Y-83200000D02*
X156400000Y-83600000D01*
%TO.N,/5V*%
X154000000Y-77600000D02*
X154800000Y-77728850D01*
X151200000Y-81600000D02*
X154000000Y-77600000D01*
%TO.N,/SCL*%
X160000000Y-98500000D02*
X162400000Y-98500000D01*
%TO.N,/SDA*%
X159200000Y-100800000D02*
X162400000Y-100000000D01*
%TO.N,/SCL*%
X156400000Y-83600000D02*
X155600000Y-84400000D01*
%TO.N,/5V*%
X157600000Y-74400000D02*
X156000000Y-76800000D01*
X159600000Y-66400000D02*
X162000000Y-66400000D01*
%TO.N,/SCL*%
X159200000Y-72000000D02*
X162400000Y-71200000D01*
X157200000Y-85600000D02*
X156400000Y-85600000D01*
%TO.N,/5V*%
X143200000Y-88800000D02*
X138400000Y-88800000D01*
X143200000Y-88800000D02*
X151200000Y-81600000D01*
X138400000Y-88800000D02*
X134400000Y-91200000D01*
%TO.N,/SD_SCK*%
X142400000Y-102400000D02*
X134400000Y-99200000D01*
%TO.N,/5V*%
X157600000Y-74400000D02*
X159600000Y-66400000D01*
%TO.N,/SDA*%
X159200000Y-100800000D02*
X156800000Y-88800000D01*
%TO.N,/SCL*%
X157200000Y-85600000D02*
X160000000Y-98500000D01*
X159200000Y-72000000D02*
X157600000Y-83200000D01*
%TO.N,/SD_SCK*%
X142400000Y-102400000D02*
X155200000Y-104800000D01*
%TO.N,/SD_DO*%
X140000000Y-104800000D02*
X136000000Y-103200000D01*
%TO.N,/SD_DI*%
X145600000Y-96800000D02*
X134400000Y-96500014D01*
%TD*%
D11*
%TO.P,A1,30,VIN*%
%TO.N,unconnected-(A1-VIN-Pad30)*%
X155670000Y-69900000D03*
%TO.P,A1,29,GND*%
%TO.N,/GND*%
X155670000Y-72440000D03*
%TO.P,A1,28,~{RESET}*%
%TO.N,unconnected-(A1-~{RESET}-Pad28)*%
X155670000Y-74980000D03*
%TO.P,A1,27,+5V*%
%TO.N,/5V*%
X155670000Y-77520000D03*
%TO.P,A1,26,A7*%
%TO.N,unconnected-(A1-A7-Pad26)*%
X155670000Y-80060000D03*
%TO.P,A1,25,A6*%
%TO.N,unconnected-(A1-A6-Pad25)*%
X155670000Y-82600000D03*
%TO.P,A1,24,A5*%
%TO.N,/SCL*%
X155670000Y-85140000D03*
%TO.P,A1,23,A4*%
%TO.N,/SDA*%
X155670000Y-87680000D03*
%TO.P,A1,22,A3*%
%TO.N,unconnected-(A1-A3-Pad22)*%
X155670000Y-90220000D03*
%TO.P,A1,21,A2*%
%TO.N,unconnected-(A1-A2-Pad21)*%
X155670000Y-92760000D03*
%TO.P,A1,20,A1*%
%TO.N,unconnected-(A1-A1-Pad20)*%
X155670000Y-95300000D03*
%TO.P,A1,19,A0*%
%TO.N,unconnected-(A1-A0-Pad19)*%
X155670000Y-97840000D03*
%TO.P,A1,18,AREF*%
%TO.N,unconnected-(A1-AREF-Pad18)*%
X155670000Y-100380000D03*
%TO.P,A1,17,3V3*%
%TO.N,/3V3*%
X155670000Y-102920000D03*
%TO.P,A1,16,D13*%
%TO.N,/SD_SCK*%
X155670000Y-105460000D03*
%TO.P,A1,15,D12*%
%TO.N,/SD_DO*%
X140430000Y-105460000D03*
%TO.P,A1,14,D11*%
%TO.N,/SD_DI*%
X140430000Y-102920000D03*
%TO.P,A1,13,D10*%
%TO.N,/SD_CS*%
X140430000Y-100380000D03*
%TO.P,A1,12,D9*%
%TO.N,unconnected-(A1-D9-Pad12)*%
X140430000Y-97840000D03*
%TO.P,A1,11,D8*%
%TO.N,unconnected-(A1-D8-Pad11)*%
X140430000Y-95300000D03*
%TO.P,A1,10,D7*%
%TO.N,unconnected-(A1-D7-Pad10)*%
X140430000Y-92760000D03*
%TO.P,A1,9,D6*%
%TO.N,unconnected-(A1-D6-Pad9)*%
X140430000Y-90220000D03*
%TO.P,A1,8,D5*%
%TO.N,unconnected-(A1-D5-Pad8)*%
X140430000Y-87680000D03*
%TO.P,A1,7,D4*%
%TO.N,unconnected-(A1-D4-Pad7)*%
X140430000Y-85140000D03*
%TO.P,A1,6,D3*%
%TO.N,unconnected-(A1-D3-Pad6)*%
X140430000Y-82600000D03*
%TO.P,A1,5,D2*%
%TO.N,unconnected-(A1-D2-Pad5)*%
X140430000Y-80060000D03*
%TO.P,A1,4,GND*%
%TO.N,/GND*%
X140430000Y-77520000D03*
%TO.P,A1,3,~{RESET}*%
%TO.N,unconnected-(A1-~{RESET}-Pad3)*%
X140430000Y-74980000D03*
%TO.P,A1,2,D0/RX*%
%TO.N,unconnected-(A1-D0{slash}RX-Pad2)*%
X140430000Y-72440000D03*
D12*
%TO.P,A1,1,D1/TX*%
%TO.N,unconnected-(A1-D1{slash}TX-Pad1)*%
X140430000Y-69900000D03*
%TD*%
D13*
%TO.P,J3,1,Pin_1*%
%TO.N,/GND*%
X133600000Y-88900000D03*
D14*
%TO.P,J3,2,Pin_2*%
%TO.N,/5V*%
X133600000Y-91440000D03*
%TO.P,J3,3,Pin_3*%
%TO.N,/SD_DO*%
X133600000Y-93980000D03*
%TO.P,J3,4,Pin_4*%
%TO.N,/SD_DI*%
X133600000Y-96520000D03*
%TO.P,J3,5,Pin_5*%
%TO.N,/SD_SCK*%
X133600000Y-99060000D03*
%TO.P,J3,6,Pin_6*%
%TO.N,/SD_CS*%
X133600000Y-101600000D03*
%TD*%
D13*
%TO.P,J2,1,Pin_1*%
%TO.N,/3V3*%
X162750000Y-92920000D03*
D14*
%TO.P,J2,2,Pin_2*%
%TO.N,/GND*%
X162750000Y-95460000D03*
%TO.P,J2,3,Pin_3*%
%TO.N,/SCL*%
X162750000Y-98000000D03*
%TO.P,J2,4,Pin_4*%
%TO.N,/SDA*%
X162750000Y-100540000D03*
%TO.P,J2,5,Pin_5*%
%TO.N,unconnected-(J2-Pin_5-Pad5)*%
X162750000Y-103080000D03*
%TO.P,J2,6,Pin_6*%
%TO.N,unconnected-(J2-Pin_6-Pad6)*%
X162750000Y-105620000D03*
%TD*%
D13*
%TO.P,J1,1,Pin_1*%
%TO.N,/5V*%
X162750000Y-66800000D03*
D14*
%TO.P,J1,2,Pin_2*%
%TO.N,/GND*%
X162750000Y-69340000D03*
%TO.P,J1,3,Pin_3*%
%TO.N,/SCL*%
X162750000Y-71880000D03*
%TO.P,J1,4,Pin_4*%
%TO.N,/SDA*%
X162750000Y-74420000D03*
%TO.P,J1,5,Pin_5*%
%TO.N,unconnected-(J1-Pin_5-Pad5)*%
X162750000Y-76960000D03*
%TO.P,J1,6,Pin_6*%
%TO.N,unconnected-(J1-Pin_6-Pad6)*%
X162750000Y-79500000D03*
%TO.P,J1,7,Pin_7*%
%TO.N,unconnected-(J1-Pin_7-Pad7)*%
X162750000Y-82040000D03*
%TO.P,J1,8,Pin_8*%
%TO.N,unconnected-(J1-Pin_8-Pad8)*%
X162750000Y-84580000D03*
%TD*%
D15*
%TO.N,/SDA*%
X156800000Y-88800000D03*
%TO.N,/SD_CS*%
X136800000Y-101600000D03*
%TO.N,/SD_DO*%
X136000000Y-103200000D03*
%TO.N,/SD_DI*%
X145600000Y-96800000D03*
%TD*%
%TA.AperFunction,Conductor*%
%TO.N,/GND*%
G36*
X161342540Y-67020185D02*
G01*
X161388295Y-67072989D01*
X161399501Y-67124500D01*
X161399501Y-67697876D01*
X161405908Y-67757483D01*
X161456202Y-67892328D01*
X161456206Y-67892335D01*
X161542452Y-68007544D01*
X161542455Y-68007547D01*
X161657664Y-68093793D01*
X161657671Y-68093797D01*
X161702618Y-68110561D01*
X161792517Y-68144091D01*
X161852127Y-68150500D01*
X161862685Y-68150499D01*
X161929723Y-68170179D01*
X161950372Y-68186818D01*
X162620591Y-68857037D01*
X162557007Y-68874075D01*
X162442993Y-68939901D01*
X162349901Y-69032993D01*
X162284075Y-69147007D01*
X162267037Y-69210591D01*
X161634728Y-68578282D01*
X161634727Y-68578282D01*
X161595380Y-68632439D01*
X161498904Y-68821782D01*
X161433242Y-69023869D01*
X161433242Y-69023872D01*
X161400000Y-69233753D01*
X161400000Y-69446246D01*
X161433242Y-69656127D01*
X161433242Y-69656130D01*
X161498904Y-69858217D01*
X161595375Y-70047550D01*
X161634728Y-70101716D01*
X162267037Y-69469408D01*
X162284075Y-69532993D01*
X162349901Y-69647007D01*
X162442993Y-69740099D01*
X162557007Y-69805925D01*
X162620590Y-69822962D01*
X161988282Y-70455269D01*
X161988282Y-70455270D01*
X162007494Y-70469228D01*
X162050160Y-70524557D01*
X162056141Y-70594170D01*
X162023536Y-70655966D01*
X161964684Y-70689845D01*
X159159136Y-71391234D01*
X159089324Y-71388396D01*
X159032129Y-71348266D01*
X159005709Y-71283584D01*
X159008763Y-71240866D01*
X160045374Y-67094424D01*
X160080731Y-67034162D01*
X160143055Y-67002580D01*
X160165672Y-67000500D01*
X161275501Y-67000500D01*
X161342540Y-67020185D01*
G37*
%TD.AperFunction*%
%TA.AperFunction,Conductor*%
G36*
X171943039Y-61619685D02*
G01*
X171988794Y-61672489D01*
X172000000Y-61724000D01*
X172000000Y-117476000D01*
X171980315Y-117543039D01*
X171927511Y-117588794D01*
X171876000Y-117600000D01*
X129724000Y-117600000D01*
X129656961Y-117580315D01*
X129611206Y-117527511D01*
X129600000Y-117476000D01*
X129600000Y-91333713D01*
X132249500Y-91333713D01*
X132249500Y-91546286D01*
X132275818Y-91712455D01*
X132282754Y-91756243D01*
X132305962Y-91827671D01*
X132348444Y-91958414D01*
X132444951Y-92147820D01*
X132569890Y-92319786D01*
X132720213Y-92470109D01*
X132892182Y-92595050D01*
X132900946Y-92599516D01*
X132951742Y-92647491D01*
X132968536Y-92715312D01*
X132945998Y-92781447D01*
X132900946Y-92820484D01*
X132892182Y-92824949D01*
X132720213Y-92949890D01*
X132569890Y-93100213D01*
X132444951Y-93272179D01*
X132348444Y-93461585D01*
X132282753Y-93663760D01*
X132249500Y-93873713D01*
X132249500Y-94086286D01*
X132282753Y-94296239D01*
X132348444Y-94498414D01*
X132444951Y-94687820D01*
X132569890Y-94859786D01*
X132720213Y-95010109D01*
X132892182Y-95135050D01*
X132900946Y-95139516D01*
X132951742Y-95187491D01*
X132968536Y-95255312D01*
X132945998Y-95321447D01*
X132900946Y-95360484D01*
X132892182Y-95364949D01*
X132720213Y-95489890D01*
X132569890Y-95640213D01*
X132444951Y-95812179D01*
X132348444Y-96001585D01*
X132282753Y-96203760D01*
X132269140Y-96289711D01*
X132249500Y-96413713D01*
X132249500Y-96626287D01*
X132282754Y-96836243D01*
X132346847Y-97033501D01*
X132348444Y-97038414D01*
X132444951Y-97227820D01*
X132569890Y-97399786D01*
X132720213Y-97550109D01*
X132892182Y-97675050D01*
X132900946Y-97679516D01*
X132951742Y-97727491D01*
X132968536Y-97795312D01*
X132945998Y-97861447D01*
X132900946Y-97900484D01*
X132892182Y-97904949D01*
X132720213Y-98029890D01*
X132569890Y-98180213D01*
X132444951Y-98352179D01*
X132348444Y-98541585D01*
X132282753Y-98743760D01*
X132249500Y-98953713D01*
X132249500Y-99166286D01*
X132275827Y-99332512D01*
X132282754Y-99376243D01*
X132327727Y-99514656D01*
X132348444Y-99578414D01*
X132444951Y-99767820D01*
X132569890Y-99939786D01*
X132720213Y-100090109D01*
X132892182Y-100215050D01*
X132900946Y-100219516D01*
X132951742Y-100267491D01*
X132968536Y-100335312D01*
X132945998Y-100401447D01*
X132900946Y-100440484D01*
X132892182Y-100444949D01*
X132720213Y-100569890D01*
X132569890Y-100720213D01*
X132444951Y-100892179D01*
X132348444Y-101081585D01*
X132348443Y-101081587D01*
X132348443Y-101081588D01*
X132320070Y-101168911D01*
X132282753Y-101283760D01*
X132249500Y-101493713D01*
X132249500Y-101706286D01*
X132275827Y-101872512D01*
X132282754Y-101916243D01*
X132345803Y-102110288D01*
X132348444Y-102118414D01*
X132444951Y-102307820D01*
X132569890Y-102479786D01*
X132720213Y-102630109D01*
X132892179Y-102755048D01*
X132892181Y-102755049D01*
X132892184Y-102755051D01*
X133081588Y-102851557D01*
X133283757Y-102917246D01*
X133493713Y-102950500D01*
X133493714Y-102950500D01*
X133706286Y-102950500D01*
X133706287Y-102950500D01*
X133916243Y-102917246D01*
X134118412Y-102851557D01*
X134307816Y-102755051D01*
X134329789Y-102739086D01*
X134479786Y-102630109D01*
X134479788Y-102630106D01*
X134479792Y-102630104D01*
X134630104Y-102479792D01*
X134630106Y-102479788D01*
X134630109Y-102479786D01*
X134710063Y-102369737D01*
X134755051Y-102307816D01*
X134755349Y-102307230D01*
X134775235Y-102268205D01*
X134823209Y-102217409D01*
X134885719Y-102200500D01*
X135697810Y-102200500D01*
X135764849Y-102220185D01*
X135810604Y-102272989D01*
X135820548Y-102342147D01*
X135791523Y-102405703D01*
X135745262Y-102439061D01*
X135620827Y-102490602D01*
X135620814Y-102490609D01*
X135489711Y-102578210D01*
X135489707Y-102578213D01*
X135378213Y-102689707D01*
X135378210Y-102689711D01*
X135290609Y-102820814D01*
X135290602Y-102820827D01*
X135230264Y-102966498D01*
X135230261Y-102966510D01*
X135199500Y-103121153D01*
X135199500Y-103278846D01*
X135230261Y-103433489D01*
X135230264Y-103433501D01*
X135290602Y-103579172D01*
X135290609Y-103579185D01*
X135378210Y-103710288D01*
X135378213Y-103710292D01*
X135489707Y-103821786D01*
X135489711Y-103821789D01*
X135620814Y-103909390D01*
X135620827Y-103909397D01*
X135730171Y-103954688D01*
X135766503Y-103969737D01*
X135921153Y-104000499D01*
X135921156Y-104000500D01*
X135921158Y-104000500D01*
X136078844Y-104000500D01*
X136078845Y-104000499D01*
X136233497Y-103969737D01*
X136233506Y-103969733D01*
X136233908Y-103969612D01*
X136234139Y-103969609D01*
X136239473Y-103968549D01*
X136239674Y-103969560D01*
X136303775Y-103968987D01*
X136315955Y-103973139D01*
X137244836Y-104344692D01*
X139076185Y-105077232D01*
X139131119Y-105120406D01*
X139153991Y-105186427D01*
X139152606Y-105211761D01*
X139129500Y-105357648D01*
X139129500Y-105562351D01*
X139161522Y-105764534D01*
X139224781Y-105959223D01*
X139317715Y-106141613D01*
X139438028Y-106307213D01*
X139582786Y-106451971D01*
X139737749Y-106564556D01*
X139748390Y-106572287D01*
X139864607Y-106631503D01*
X139930776Y-106665218D01*
X139930778Y-106665218D01*
X139930781Y-106665220D01*
X140035137Y-106699127D01*
X140125465Y-106728477D01*
X140226557Y-106744488D01*
X140327648Y-106760500D01*
X140327649Y-106760500D01*
X140532351Y-106760500D01*
X140532352Y-106760500D01*
X140734534Y-106728477D01*
X140929219Y-106665220D01*
X141111610Y-106572287D01*
X141211400Y-106499786D01*
X141277213Y-106451971D01*
X141277215Y-106451968D01*
X141277219Y-106451966D01*
X141421966Y-106307219D01*
X141421968Y-106307215D01*
X141421971Y-106307213D01*
X141474732Y-106234590D01*
X141542287Y-106141610D01*
X141635220Y-105959219D01*
X141698477Y-105764534D01*
X141730500Y-105562352D01*
X141730500Y-105357648D01*
X141711277Y-105236280D01*
X141698477Y-105155465D01*
X141635218Y-104960776D01*
X141601503Y-104894607D01*
X141542287Y-104778390D01*
X141514550Y-104740213D01*
X141421971Y-104612786D01*
X141277213Y-104468028D01*
X141111614Y-104347715D01*
X141079902Y-104331557D01*
X141018917Y-104300483D01*
X140968123Y-104252511D01*
X140951328Y-104184690D01*
X140973865Y-104118555D01*
X141018917Y-104079516D01*
X141111610Y-104032287D01*
X141137450Y-104013513D01*
X141277213Y-103911971D01*
X141277215Y-103911968D01*
X141277219Y-103911966D01*
X141421966Y-103767219D01*
X141421968Y-103767215D01*
X141421971Y-103767213D01*
X141509357Y-103646934D01*
X141542287Y-103601610D01*
X141635220Y-103419219D01*
X141698477Y-103224534D01*
X141730500Y-103022352D01*
X141730500Y-102962109D01*
X141750185Y-102895070D01*
X141802989Y-102849315D01*
X141872147Y-102839371D01*
X141900548Y-102846976D01*
X142076221Y-102917246D01*
X142154553Y-102948579D01*
X142154552Y-102948579D01*
X142158398Y-102950117D01*
X142211632Y-102975645D01*
X142231558Y-102979381D01*
X142250383Y-102986911D01*
X142304942Y-102993417D01*
X142313048Y-102994659D01*
X154268353Y-105236280D01*
X154330615Y-105267982D01*
X154365855Y-105328314D01*
X154369500Y-105358156D01*
X154369500Y-105562351D01*
X154401522Y-105764534D01*
X154464781Y-105959223D01*
X154557715Y-106141613D01*
X154678028Y-106307213D01*
X154822786Y-106451971D01*
X154977749Y-106564556D01*
X154988390Y-106572287D01*
X155104607Y-106631503D01*
X155170776Y-106665218D01*
X155170778Y-106665218D01*
X155170781Y-106665220D01*
X155275137Y-106699127D01*
X155365465Y-106728477D01*
X155466557Y-106744488D01*
X155567648Y-106760500D01*
X155567649Y-106760500D01*
X155772351Y-106760500D01*
X155772352Y-106760500D01*
X155974534Y-106728477D01*
X156169219Y-106665220D01*
X156351610Y-106572287D01*
X156451400Y-106499786D01*
X156517213Y-106451971D01*
X156517215Y-106451968D01*
X156517219Y-106451966D01*
X156661966Y-106307219D01*
X156661968Y-106307215D01*
X156661971Y-106307213D01*
X156714732Y-106234590D01*
X156782287Y-106141610D01*
X156875220Y-105959219D01*
X156938477Y-105764534D01*
X156970500Y-105562352D01*
X156970500Y-105357648D01*
X156951277Y-105236280D01*
X156938477Y-105155465D01*
X156875218Y-104960776D01*
X156841503Y-104894607D01*
X156782287Y-104778390D01*
X156754550Y-104740213D01*
X156661971Y-104612786D01*
X156517213Y-104468028D01*
X156351614Y-104347715D01*
X156319902Y-104331557D01*
X156258917Y-104300483D01*
X156208123Y-104252511D01*
X156191328Y-104184690D01*
X156213865Y-104118555D01*
X156258917Y-104079516D01*
X156351610Y-104032287D01*
X156377450Y-104013513D01*
X156517213Y-103911971D01*
X156517215Y-103911968D01*
X156517219Y-103911966D01*
X156661966Y-103767219D01*
X156661968Y-103767215D01*
X156661971Y-103767213D01*
X156749357Y-103646934D01*
X156782287Y-103601610D01*
X156875220Y-103419219D01*
X156938477Y-103224534D01*
X156970500Y-103022352D01*
X156970500Y-102817648D01*
X156960585Y-102755048D01*
X156938477Y-102615465D01*
X156897908Y-102490609D01*
X156875220Y-102420781D01*
X156875218Y-102420778D01*
X156875218Y-102420776D01*
X156817661Y-102307816D01*
X156782287Y-102238390D01*
X156754550Y-102200213D01*
X156661971Y-102072786D01*
X156517213Y-101928028D01*
X156351614Y-101807715D01*
X156319902Y-101791557D01*
X156258917Y-101760483D01*
X156208123Y-101712511D01*
X156191328Y-101644690D01*
X156213865Y-101578555D01*
X156258917Y-101539516D01*
X156351610Y-101492287D01*
X156472656Y-101404343D01*
X156517213Y-101371971D01*
X156517215Y-101371968D01*
X156517219Y-101371966D01*
X156661966Y-101227219D01*
X156661968Y-101227215D01*
X156661971Y-101227213D01*
X156727495Y-101137025D01*
X156782287Y-101061610D01*
X156875220Y-100879219D01*
X156938477Y-100684534D01*
X156970500Y-100482352D01*
X156970500Y-100277648D01*
X156940796Y-100090105D01*
X156938477Y-100075465D01*
X156875218Y-99880776D01*
X156817661Y-99767816D01*
X156782287Y-99698390D01*
X156754550Y-99660213D01*
X156661971Y-99532786D01*
X156517213Y-99388028D01*
X156351614Y-99267715D01*
X156313537Y-99248314D01*
X156258917Y-99220483D01*
X156208123Y-99172511D01*
X156191328Y-99104690D01*
X156213865Y-99038555D01*
X156258917Y-98999516D01*
X156351610Y-98952287D01*
X156484084Y-98856040D01*
X156517213Y-98831971D01*
X156517215Y-98831968D01*
X156517219Y-98831966D01*
X156661966Y-98687219D01*
X156661968Y-98687215D01*
X156661971Y-98687213D01*
X156714732Y-98614590D01*
X156782287Y-98521610D01*
X156875220Y-98339219D01*
X156938477Y-98144534D01*
X156970500Y-97942352D01*
X156970500Y-97737648D01*
X156940796Y-97550109D01*
X156938477Y-97535465D01*
X156901298Y-97421041D01*
X156875220Y-97340781D01*
X156875218Y-97340778D01*
X156875218Y-97340776D01*
X156841503Y-97274607D01*
X156782287Y-97158390D01*
X156754550Y-97120213D01*
X156661971Y-96992786D01*
X156517213Y-96848028D01*
X156351614Y-96727715D01*
X156338735Y-96721153D01*
X156258917Y-96680483D01*
X156208123Y-96632511D01*
X156191328Y-96564690D01*
X156213865Y-96498555D01*
X156258917Y-96459516D01*
X156351610Y-96412287D01*
X156372770Y-96396913D01*
X156517213Y-96291971D01*
X156517215Y-96291968D01*
X156517219Y-96291966D01*
X156661966Y-96147219D01*
X156661968Y-96147215D01*
X156661971Y-96147213D01*
X156746938Y-96030264D01*
X156782287Y-95981610D01*
X156875220Y-95799219D01*
X156938477Y-95604534D01*
X156970500Y-95402352D01*
X156970500Y-95197648D01*
X156940796Y-95010109D01*
X156938477Y-94995465D01*
X156875218Y-94800776D01*
X156817661Y-94687816D01*
X156782287Y-94618390D01*
X156774556Y-94607749D01*
X156661971Y-94452786D01*
X156517213Y-94308028D01*
X156351614Y-94187715D01*
X156345006Y-94184348D01*
X156258917Y-94140483D01*
X156208123Y-94092511D01*
X156191328Y-94024690D01*
X156213865Y-93958555D01*
X156258917Y-93919516D01*
X156351610Y-93872287D01*
X156372770Y-93856913D01*
X156517213Y-93751971D01*
X156517215Y-93751968D01*
X156517219Y-93751966D01*
X156661966Y-93607219D01*
X156661968Y-93607215D01*
X156661971Y-93607213D01*
X156782284Y-93441614D01*
X156782285Y-93441613D01*
X156782287Y-93441610D01*
X156859817Y-93289448D01*
X156907790Y-93238654D01*
X156975611Y-93221859D01*
X157041746Y-93244396D01*
X157085198Y-93299111D01*
X157091893Y-93321427D01*
X158595883Y-100841381D01*
X158598498Y-100854454D01*
X158598255Y-100868946D01*
X158613963Y-100931782D01*
X158614540Y-100934663D01*
X158614542Y-100934672D01*
X158626666Y-100995291D01*
X158626667Y-100995294D01*
X158627183Y-100996337D01*
X158636319Y-101021202D01*
X158636603Y-101022338D01*
X158666608Y-101076390D01*
X158668042Y-101078973D01*
X158696746Y-101137025D01*
X158706309Y-101147907D01*
X158712775Y-101159554D01*
X158713343Y-101160577D01*
X158713344Y-101160578D01*
X158713346Y-101160581D01*
X158758366Y-101207142D01*
X158801123Y-101255794D01*
X158813180Y-101263832D01*
X158822443Y-101273412D01*
X158822442Y-101273412D01*
X158823248Y-101274245D01*
X158823253Y-101274250D01*
X158876259Y-101306054D01*
X158881242Y-101309207D01*
X158932682Y-101343500D01*
X158933777Y-101343870D01*
X158957838Y-101355001D01*
X158958836Y-101355600D01*
X159021108Y-101373413D01*
X159082459Y-101394167D01*
X159096919Y-101395098D01*
X159109739Y-101398766D01*
X159109741Y-101398767D01*
X159109746Y-101398768D01*
X159110854Y-101399085D01*
X159172651Y-101400124D01*
X159178534Y-101400362D01*
X159240246Y-101404343D01*
X159254455Y-101401501D01*
X159268946Y-101401745D01*
X159331776Y-101386037D01*
X159334666Y-101385459D01*
X159334667Y-101385459D01*
X159352263Y-101381939D01*
X159395290Y-101373335D01*
X159396322Y-101372824D01*
X159421215Y-101363676D01*
X161321872Y-100888512D01*
X161391683Y-100891350D01*
X161448878Y-100931480D01*
X161469875Y-100970489D01*
X161477934Y-100995291D01*
X161498444Y-101058416D01*
X161594951Y-101247820D01*
X161719890Y-101419786D01*
X161870213Y-101570109D01*
X162042182Y-101695050D01*
X162050946Y-101699516D01*
X162101742Y-101747491D01*
X162118536Y-101815312D01*
X162095998Y-101881447D01*
X162050946Y-101920484D01*
X162042182Y-101924949D01*
X161870213Y-102049890D01*
X161719890Y-102200213D01*
X161594951Y-102372179D01*
X161498444Y-102561585D01*
X161432753Y-102763760D01*
X161403481Y-102948579D01*
X161399500Y-102973713D01*
X161399500Y-103186287D01*
X161432754Y-103396243D01*
X161440219Y-103419219D01*
X161498444Y-103598414D01*
X161594951Y-103787820D01*
X161719890Y-103959786D01*
X161870213Y-104110109D01*
X162042182Y-104235050D01*
X162050946Y-104239516D01*
X162101742Y-104287491D01*
X162118536Y-104355312D01*
X162095998Y-104421447D01*
X162050946Y-104460484D01*
X162042182Y-104464949D01*
X161870213Y-104589890D01*
X161719890Y-104740213D01*
X161594951Y-104912179D01*
X161498444Y-105101585D01*
X161432753Y-105303760D01*
X161424218Y-105357648D01*
X161399500Y-105513713D01*
X161399500Y-105726287D01*
X161432754Y-105936243D01*
X161440219Y-105959219D01*
X161498444Y-106138414D01*
X161594951Y-106327820D01*
X161719890Y-106499786D01*
X161870213Y-106650109D01*
X162042179Y-106775048D01*
X162042181Y-106775049D01*
X162042184Y-106775051D01*
X162231588Y-106871557D01*
X162433757Y-106937246D01*
X162643713Y-106970500D01*
X162643714Y-106970500D01*
X162856286Y-106970500D01*
X162856287Y-106970500D01*
X163066243Y-106937246D01*
X163268412Y-106871557D01*
X163457816Y-106775051D01*
X163521920Y-106728477D01*
X163629786Y-106650109D01*
X163629788Y-106650106D01*
X163629792Y-106650104D01*
X163780104Y-106499792D01*
X163780106Y-106499788D01*
X163780109Y-106499786D01*
X163905048Y-106327820D01*
X163905047Y-106327820D01*
X163905051Y-106327816D01*
X164001557Y-106138412D01*
X164067246Y-105936243D01*
X164100500Y-105726287D01*
X164100500Y-105513713D01*
X164067246Y-105303757D01*
X164001557Y-105101588D01*
X163905051Y-104912184D01*
X163905049Y-104912181D01*
X163905048Y-104912179D01*
X163780109Y-104740213D01*
X163629786Y-104589890D01*
X163457820Y-104464951D01*
X163457115Y-104464591D01*
X163449054Y-104460485D01*
X163398259Y-104412512D01*
X163381463Y-104344692D01*
X163403999Y-104278556D01*
X163449054Y-104239515D01*
X163457816Y-104235051D01*
X163521920Y-104188477D01*
X163629786Y-104110109D01*
X163629788Y-104110106D01*
X163629792Y-104110104D01*
X163780104Y-103959792D01*
X163780106Y-103959788D01*
X163780109Y-103959786D01*
X163905048Y-103787820D01*
X163905047Y-103787820D01*
X163905051Y-103787816D01*
X164001557Y-103598412D01*
X164067246Y-103396243D01*
X164100500Y-103186287D01*
X164100500Y-102973713D01*
X164067246Y-102763757D01*
X164001557Y-102561588D01*
X163905051Y-102372184D01*
X163905049Y-102372181D01*
X163905048Y-102372179D01*
X163780109Y-102200213D01*
X163629786Y-102049890D01*
X163457820Y-101924951D01*
X163457115Y-101924591D01*
X163449054Y-101920485D01*
X163398259Y-101872512D01*
X163381463Y-101804692D01*
X163403999Y-101738556D01*
X163449054Y-101699515D01*
X163457816Y-101695051D01*
X163521920Y-101648477D01*
X163629786Y-101570109D01*
X163629788Y-101570106D01*
X163629792Y-101570104D01*
X163780104Y-101419792D01*
X163780106Y-101419788D01*
X163780109Y-101419786D01*
X163905048Y-101247820D01*
X163905047Y-101247820D01*
X163905051Y-101247816D01*
X164001557Y-101058412D01*
X164067246Y-100856243D01*
X164100500Y-100646287D01*
X164100500Y-100433713D01*
X164067246Y-100223757D01*
X164001557Y-100021588D01*
X163905051Y-99832184D01*
X163905049Y-99832181D01*
X163905048Y-99832179D01*
X163780109Y-99660213D01*
X163629786Y-99509890D01*
X163457820Y-99384951D01*
X163457115Y-99384591D01*
X163449054Y-99380485D01*
X163398259Y-99332512D01*
X163381463Y-99264692D01*
X163403999Y-99198556D01*
X163449054Y-99159515D01*
X163457816Y-99155051D01*
X163525526Y-99105857D01*
X163629786Y-99030109D01*
X163629788Y-99030106D01*
X163629792Y-99030104D01*
X163780104Y-98879792D01*
X163780106Y-98879788D01*
X163780109Y-98879786D01*
X163905048Y-98707820D01*
X163905047Y-98707820D01*
X163905051Y-98707816D01*
X164001557Y-98518412D01*
X164067246Y-98316243D01*
X164100500Y-98106287D01*
X164100500Y-97893713D01*
X164067246Y-97683757D01*
X164001557Y-97481588D01*
X163905051Y-97292184D01*
X163905049Y-97292181D01*
X163905048Y-97292179D01*
X163780109Y-97120213D01*
X163629786Y-96969890D01*
X163457817Y-96844949D01*
X163448504Y-96840204D01*
X163397707Y-96792230D01*
X163380912Y-96724409D01*
X163403449Y-96658274D01*
X163448507Y-96619232D01*
X163457555Y-96614622D01*
X163511716Y-96575270D01*
X163511717Y-96575270D01*
X162879408Y-95942962D01*
X162942993Y-95925925D01*
X163057007Y-95860099D01*
X163150099Y-95767007D01*
X163215925Y-95652993D01*
X163232962Y-95589408D01*
X163865270Y-96221717D01*
X163865270Y-96221716D01*
X163904622Y-96167554D01*
X164001095Y-95978217D01*
X164066757Y-95776130D01*
X164066757Y-95776127D01*
X164100000Y-95566246D01*
X164100000Y-95353753D01*
X164066757Y-95143872D01*
X164066757Y-95143869D01*
X164001095Y-94941782D01*
X163904624Y-94752449D01*
X163865270Y-94698282D01*
X163865269Y-94698282D01*
X163232962Y-95330590D01*
X163215925Y-95267007D01*
X163150099Y-95152993D01*
X163057007Y-95059901D01*
X162942993Y-94994075D01*
X162879409Y-94977037D01*
X163549627Y-94306818D01*
X163610950Y-94273333D01*
X163637307Y-94270499D01*
X163647872Y-94270499D01*
X163707483Y-94264091D01*
X163842331Y-94213796D01*
X163957546Y-94127546D01*
X164043796Y-94012331D01*
X164094091Y-93877483D01*
X164100500Y-93817873D01*
X164100499Y-92022128D01*
X164094091Y-91962517D01*
X164092561Y-91958416D01*
X164043797Y-91827671D01*
X164043793Y-91827664D01*
X163957547Y-91712455D01*
X163957544Y-91712452D01*
X163842335Y-91626206D01*
X163842328Y-91626202D01*
X163707482Y-91575908D01*
X163707483Y-91575908D01*
X163647883Y-91569501D01*
X163647881Y-91569500D01*
X163647873Y-91569500D01*
X163647864Y-91569500D01*
X161852129Y-91569500D01*
X161852123Y-91569501D01*
X161792516Y-91575908D01*
X161657671Y-91626202D01*
X161657664Y-91626206D01*
X161542455Y-91712452D01*
X161542452Y-91712455D01*
X161456206Y-91827664D01*
X161456202Y-91827671D01*
X161405908Y-91962517D01*
X161399501Y-92022116D01*
X161399501Y-92022123D01*
X161399500Y-92022135D01*
X161399500Y-93817870D01*
X161399501Y-93817876D01*
X161405908Y-93877483D01*
X161456202Y-94012328D01*
X161456206Y-94012335D01*
X161542452Y-94127544D01*
X161542455Y-94127547D01*
X161657664Y-94213793D01*
X161657671Y-94213797D01*
X161702618Y-94230561D01*
X161792517Y-94264091D01*
X161852127Y-94270500D01*
X161862685Y-94270499D01*
X161929723Y-94290179D01*
X161950372Y-94306818D01*
X162620591Y-94977037D01*
X162557007Y-94994075D01*
X162442993Y-95059901D01*
X162349901Y-95152993D01*
X162284075Y-95267007D01*
X162267037Y-95330591D01*
X161634728Y-94698282D01*
X161634727Y-94698282D01*
X161595380Y-94752439D01*
X161498904Y-94941782D01*
X161433242Y-95143869D01*
X161433242Y-95143872D01*
X161400000Y-95353753D01*
X161400000Y-95566246D01*
X161433242Y-95776127D01*
X161433242Y-95776130D01*
X161498904Y-95978217D01*
X161595375Y-96167550D01*
X161634728Y-96221716D01*
X162267037Y-95589408D01*
X162284075Y-95652993D01*
X162349901Y-95767007D01*
X162442993Y-95860099D01*
X162557007Y-95925925D01*
X162620590Y-95942962D01*
X161988282Y-96575269D01*
X161988282Y-96575270D01*
X162042452Y-96614626D01*
X162042451Y-96614626D01*
X162051495Y-96619234D01*
X162102292Y-96667208D01*
X162119087Y-96735029D01*
X162096550Y-96801164D01*
X162051499Y-96840202D01*
X162042182Y-96844949D01*
X161870213Y-96969890D01*
X161719890Y-97120213D01*
X161594951Y-97292179D01*
X161498444Y-97481585D01*
X161432753Y-97683759D01*
X161415151Y-97794898D01*
X161385222Y-97858033D01*
X161325910Y-97894964D01*
X161292678Y-97899500D01*
X160584114Y-97899500D01*
X160517075Y-97879815D01*
X160471320Y-97827011D01*
X160462936Y-97801802D01*
X160461527Y-97795312D01*
X157800500Y-85535580D01*
X157800500Y-85520943D01*
X157783772Y-85458515D01*
X157770066Y-85395367D01*
X157769459Y-85394189D01*
X157759921Y-85369502D01*
X157759577Y-85368216D01*
X157727261Y-85312243D01*
X157697679Y-85254796D01*
X157687839Y-85243962D01*
X157680520Y-85231284D01*
X157634814Y-85185578D01*
X157591375Y-85137749D01*
X157579067Y-85129831D01*
X157568716Y-85119480D01*
X157515330Y-85088657D01*
X157510248Y-85085558D01*
X157458399Y-85052203D01*
X157457126Y-85051796D01*
X157444457Y-85047740D01*
X157431784Y-85040423D01*
X157369371Y-85023699D01*
X157366527Y-85022788D01*
X157307812Y-85003990D01*
X157306479Y-85003925D01*
X157306479Y-85003926D01*
X157294712Y-85003360D01*
X157293193Y-85003287D01*
X157279057Y-84999500D01*
X157214442Y-84999500D01*
X157211468Y-84999357D01*
X157149883Y-84996395D01*
X157148572Y-84996679D01*
X157122276Y-84999500D01*
X157070363Y-84999500D01*
X157003324Y-84979815D01*
X156957569Y-84927011D01*
X156947890Y-84894897D01*
X156938478Y-84835470D01*
X156938477Y-84835468D01*
X156938477Y-84835466D01*
X156875220Y-84640781D01*
X156782287Y-84458390D01*
X156679815Y-84317348D01*
X156668356Y-84285235D01*
X156656449Y-84253309D01*
X156656644Y-84252409D01*
X156656335Y-84251542D01*
X156664055Y-84218342D01*
X156671301Y-84185036D01*
X156672026Y-84184067D01*
X156672161Y-84183488D01*
X156692448Y-84156786D01*
X156703681Y-84145553D01*
X156752145Y-84115600D01*
X157720299Y-83792881D01*
X157744673Y-83787411D01*
X157750318Y-83786732D01*
X157806979Y-83763989D01*
X157864895Y-83744684D01*
X157880118Y-83734632D01*
X157897054Y-83727835D01*
X157897058Y-83727831D01*
X157897060Y-83727831D01*
X157942930Y-83693427D01*
X157942929Y-83693427D01*
X157945902Y-83691198D01*
X157996843Y-83657565D01*
X158008946Y-83643915D01*
X158023546Y-83632966D01*
X158058955Y-83587854D01*
X158063708Y-83582161D01*
X158101744Y-83539267D01*
X158101748Y-83539263D01*
X158109907Y-83522944D01*
X158121174Y-83508591D01*
X158145156Y-83452446D01*
X158172459Y-83397841D01*
X158176117Y-83379963D01*
X158183284Y-83363186D01*
X158191917Y-83302753D01*
X158204158Y-83242936D01*
X158203816Y-83237251D01*
X158204838Y-83212298D01*
X159725571Y-72567176D01*
X159754538Y-72503597D01*
X159813282Y-72465769D01*
X159818205Y-72464429D01*
X161280756Y-72098791D01*
X161350565Y-72101629D01*
X161407760Y-72141759D01*
X161429874Y-72191921D01*
X161431616Y-72191503D01*
X161432753Y-72196239D01*
X161432754Y-72196243D01*
X161478699Y-72337648D01*
X161498444Y-72398414D01*
X161594951Y-72587820D01*
X161719890Y-72759786D01*
X161870213Y-72910109D01*
X162042182Y-73035050D01*
X162050946Y-73039516D01*
X162101742Y-73087491D01*
X162118536Y-73155312D01*
X162095998Y-73221447D01*
X162050946Y-73260484D01*
X162042182Y-73264949D01*
X161870213Y-73389890D01*
X161719890Y-73540213D01*
X161594951Y-73712179D01*
X161498444Y-73901585D01*
X161432753Y-74103760D01*
X161399500Y-74313713D01*
X161399500Y-74526286D01*
X161429039Y-74712791D01*
X161432754Y-74736243D01*
X161498009Y-74937077D01*
X161498444Y-74938414D01*
X161594951Y-75127820D01*
X161719890Y-75299786D01*
X161870213Y-75450109D01*
X162042182Y-75575050D01*
X162050946Y-75579516D01*
X162101742Y-75627491D01*
X162118536Y-75695312D01*
X162095998Y-75761447D01*
X162050946Y-75800484D01*
X162042182Y-75804949D01*
X161870213Y-75929890D01*
X161719890Y-76080213D01*
X161594951Y-76252179D01*
X161498444Y-76441585D01*
X161432753Y-76643760D01*
X161423043Y-76705070D01*
X161399500Y-76853713D01*
X161399500Y-77066287D01*
X161400564Y-77073002D01*
X161423127Y-77215465D01*
X161432754Y-77276243D01*
X161478699Y-77417648D01*
X161498444Y-77478414D01*
X161594951Y-77667820D01*
X161719890Y-77839786D01*
X161870213Y-77990109D01*
X162042182Y-78115050D01*
X162050946Y-78119516D01*
X162101742Y-78167491D01*
X162118536Y-78235312D01*
X162095998Y-78301447D01*
X162050946Y-78340484D01*
X162042182Y-78344949D01*
X161870213Y-78469890D01*
X161719890Y-78620213D01*
X161594951Y-78792179D01*
X161498444Y-78981585D01*
X161432753Y-79183760D01*
X161399500Y-79393713D01*
X161399500Y-79606286D01*
X161423127Y-79755465D01*
X161432754Y-79816243D01*
X161478699Y-79957648D01*
X161498444Y-80018414D01*
X161594951Y-80207820D01*
X161719890Y-80379786D01*
X161870213Y-80530109D01*
X162042182Y-80655050D01*
X162050946Y-80659516D01*
X162101742Y-80707491D01*
X162118536Y-80775312D01*
X162095998Y-80841447D01*
X162050946Y-80880484D01*
X162042182Y-80884949D01*
X161870213Y-81009890D01*
X161719890Y-81160213D01*
X161594951Y-81332179D01*
X161498444Y-81521585D01*
X161432753Y-81723760D01*
X161399500Y-81933713D01*
X161399500Y-82146286D01*
X161423127Y-82295465D01*
X161432754Y-82356243D01*
X161478699Y-82497648D01*
X161498444Y-82558414D01*
X161594951Y-82747820D01*
X161719890Y-82919786D01*
X161870213Y-83070109D01*
X162042182Y-83195050D01*
X162050946Y-83199516D01*
X162101742Y-83247491D01*
X162118536Y-83315312D01*
X162095998Y-83381447D01*
X162050946Y-83420484D01*
X162042182Y-83424949D01*
X161870213Y-83549890D01*
X161719890Y-83700213D01*
X161594951Y-83872179D01*
X161498444Y-84061585D01*
X161432753Y-84263760D01*
X161399500Y-84473713D01*
X161399500Y-84686286D01*
X161432540Y-84894897D01*
X161432754Y-84896243D01*
X161495274Y-85088660D01*
X161498444Y-85098414D01*
X161594951Y-85287820D01*
X161719890Y-85459786D01*
X161870213Y-85610109D01*
X162042179Y-85735048D01*
X162042181Y-85735049D01*
X162042184Y-85735051D01*
X162231588Y-85831557D01*
X162433757Y-85897246D01*
X162643713Y-85930500D01*
X162643714Y-85930500D01*
X162856286Y-85930500D01*
X162856287Y-85930500D01*
X163066243Y-85897246D01*
X163268412Y-85831557D01*
X163457816Y-85735051D01*
X163589713Y-85639223D01*
X163629786Y-85610109D01*
X163629788Y-85610106D01*
X163629792Y-85610104D01*
X163780104Y-85459792D01*
X163780106Y-85459788D01*
X163780109Y-85459786D01*
X163905048Y-85287820D01*
X163905047Y-85287820D01*
X163905051Y-85287816D01*
X164001557Y-85098412D01*
X164067246Y-84896243D01*
X164100500Y-84686287D01*
X164100500Y-84473713D01*
X164067246Y-84263757D01*
X164001557Y-84061588D01*
X163905051Y-83872184D01*
X163905049Y-83872181D01*
X163905048Y-83872179D01*
X163780109Y-83700213D01*
X163629786Y-83549890D01*
X163457820Y-83424951D01*
X163457115Y-83424591D01*
X163449054Y-83420485D01*
X163398259Y-83372512D01*
X163381463Y-83304692D01*
X163403999Y-83238556D01*
X163449054Y-83199515D01*
X163457816Y-83195051D01*
X163589713Y-83099223D01*
X163629786Y-83070109D01*
X163629788Y-83070106D01*
X163629792Y-83070104D01*
X163780104Y-82919792D01*
X163780106Y-82919788D01*
X163780109Y-82919786D01*
X163905048Y-82747820D01*
X163905047Y-82747820D01*
X163905051Y-82747816D01*
X164001557Y-82558412D01*
X164067246Y-82356243D01*
X164100500Y-82146287D01*
X164100500Y-81933713D01*
X164067246Y-81723757D01*
X164001557Y-81521588D01*
X163905051Y-81332184D01*
X163905049Y-81332181D01*
X163905048Y-81332179D01*
X163780109Y-81160213D01*
X163629786Y-81009890D01*
X163457820Y-80884951D01*
X163457115Y-80884591D01*
X163449054Y-80880485D01*
X163398259Y-80832512D01*
X163381463Y-80764692D01*
X163403999Y-80698556D01*
X163449054Y-80659515D01*
X163457816Y-80655051D01*
X163589713Y-80559223D01*
X163629786Y-80530109D01*
X163629788Y-80530106D01*
X163629792Y-80530104D01*
X163780104Y-80379792D01*
X163780106Y-80379788D01*
X163780109Y-80379786D01*
X163905048Y-80207820D01*
X163905047Y-80207820D01*
X163905051Y-80207816D01*
X164001557Y-80018412D01*
X164067246Y-79816243D01*
X164100500Y-79606287D01*
X164100500Y-79393713D01*
X164067246Y-79183757D01*
X164001557Y-78981588D01*
X163905051Y-78792184D01*
X163905049Y-78792181D01*
X163905048Y-78792179D01*
X163780109Y-78620213D01*
X163629786Y-78469890D01*
X163457820Y-78344951D01*
X163457115Y-78344591D01*
X163449054Y-78340485D01*
X163398259Y-78292512D01*
X163381463Y-78224692D01*
X163403999Y-78158556D01*
X163449054Y-78119515D01*
X163457816Y-78115051D01*
X163479789Y-78099086D01*
X163629786Y-77990109D01*
X163629788Y-77990106D01*
X163629792Y-77990104D01*
X163780104Y-77839792D01*
X163780106Y-77839788D01*
X163780109Y-77839786D01*
X163905048Y-77667820D01*
X163905047Y-77667820D01*
X163905051Y-77667816D01*
X164001557Y-77478412D01*
X164067246Y-77276243D01*
X164100500Y-77066287D01*
X164100500Y-76853713D01*
X164067246Y-76643757D01*
X164001557Y-76441588D01*
X163905051Y-76252184D01*
X163905049Y-76252181D01*
X163905048Y-76252179D01*
X163780109Y-76080213D01*
X163629786Y-75929890D01*
X163457820Y-75804951D01*
X163457115Y-75804591D01*
X163449054Y-75800485D01*
X163398259Y-75752512D01*
X163381463Y-75684692D01*
X163403999Y-75618556D01*
X163449054Y-75579515D01*
X163457816Y-75575051D01*
X163589713Y-75479223D01*
X163629786Y-75450109D01*
X163629788Y-75450106D01*
X163629792Y-75450104D01*
X163780104Y-75299792D01*
X163780106Y-75299788D01*
X163780109Y-75299786D01*
X163905048Y-75127820D01*
X163905047Y-75127820D01*
X163905051Y-75127816D01*
X164001557Y-74938412D01*
X164067246Y-74736243D01*
X164100500Y-74526287D01*
X164100500Y-74313713D01*
X164067246Y-74103757D01*
X164001557Y-73901588D01*
X163905051Y-73712184D01*
X163905049Y-73712181D01*
X163905048Y-73712179D01*
X163780109Y-73540213D01*
X163629786Y-73389890D01*
X163457820Y-73264951D01*
X163457115Y-73264591D01*
X163449054Y-73260485D01*
X163398259Y-73212512D01*
X163381463Y-73144692D01*
X163403999Y-73078556D01*
X163449054Y-73039515D01*
X163457816Y-73035051D01*
X163479789Y-73019086D01*
X163629786Y-72910109D01*
X163629788Y-72910106D01*
X163629792Y-72910104D01*
X163780104Y-72759792D01*
X163780106Y-72759788D01*
X163780109Y-72759786D01*
X163905048Y-72587820D01*
X163905047Y-72587820D01*
X163905051Y-72587816D01*
X164001557Y-72398412D01*
X164067246Y-72196243D01*
X164100500Y-71986287D01*
X164100500Y-71773713D01*
X164067246Y-71563757D01*
X164001557Y-71361588D01*
X163905051Y-71172184D01*
X163905049Y-71172181D01*
X163905048Y-71172179D01*
X163780109Y-71000213D01*
X163629786Y-70849890D01*
X163457817Y-70724949D01*
X163448504Y-70720204D01*
X163397707Y-70672230D01*
X163380912Y-70604409D01*
X163403449Y-70538274D01*
X163448507Y-70499232D01*
X163457555Y-70494622D01*
X163511716Y-70455270D01*
X163511717Y-70455270D01*
X162879408Y-69822962D01*
X162942993Y-69805925D01*
X163057007Y-69740099D01*
X163150099Y-69647007D01*
X163215925Y-69532993D01*
X163232962Y-69469408D01*
X163865270Y-70101717D01*
X163865270Y-70101716D01*
X163904622Y-70047554D01*
X164001095Y-69858217D01*
X164066757Y-69656130D01*
X164066757Y-69656127D01*
X164100000Y-69446246D01*
X164100000Y-69233753D01*
X164066757Y-69023872D01*
X164066757Y-69023869D01*
X164001095Y-68821782D01*
X163904624Y-68632449D01*
X163865270Y-68578282D01*
X163865269Y-68578282D01*
X163232962Y-69210590D01*
X163215925Y-69147007D01*
X163150099Y-69032993D01*
X163057007Y-68939901D01*
X162942993Y-68874075D01*
X162879409Y-68857037D01*
X163549627Y-68186818D01*
X163610950Y-68153333D01*
X163637307Y-68150499D01*
X163647872Y-68150499D01*
X163707483Y-68144091D01*
X163842331Y-68093796D01*
X163957546Y-68007546D01*
X164043796Y-67892331D01*
X164094091Y-67757483D01*
X164100500Y-67697873D01*
X164100499Y-65902128D01*
X164094294Y-65844401D01*
X164094091Y-65842516D01*
X164043797Y-65707671D01*
X164043793Y-65707664D01*
X163957547Y-65592455D01*
X163957544Y-65592452D01*
X163842335Y-65506206D01*
X163842328Y-65506202D01*
X163707482Y-65455908D01*
X163707483Y-65455908D01*
X163647883Y-65449501D01*
X163647881Y-65449500D01*
X163647873Y-65449500D01*
X163647864Y-65449500D01*
X161852129Y-65449500D01*
X161852123Y-65449501D01*
X161792516Y-65455908D01*
X161657671Y-65506202D01*
X161657664Y-65506206D01*
X161542455Y-65592452D01*
X161542452Y-65592455D01*
X161456206Y-65707664D01*
X161456204Y-65707668D01*
X161456204Y-65707669D01*
X161452039Y-65718834D01*
X161410171Y-65774766D01*
X161344707Y-65799184D01*
X161335859Y-65799500D01*
X159673922Y-65799500D01*
X159668946Y-65798256D01*
X159594983Y-65799500D01*
X159520941Y-65799500D01*
X159517087Y-65800007D01*
X159516804Y-65800027D01*
X159514974Y-65800284D01*
X159514685Y-65800344D01*
X159510862Y-65800913D01*
X159510855Y-65800914D01*
X159510854Y-65800915D01*
X159440719Y-65820976D01*
X159438768Y-65821517D01*
X159368211Y-65840424D01*
X159364657Y-65841895D01*
X159364658Y-65841896D01*
X159362641Y-65842731D01*
X159362390Y-65842858D01*
X159358836Y-65844400D01*
X159296239Y-65881957D01*
X159296238Y-65881956D01*
X159295239Y-65882555D01*
X159231284Y-65919480D01*
X159227656Y-65923106D01*
X159223254Y-65925748D01*
X159172524Y-65978212D01*
X159172525Y-65978213D01*
X159171795Y-65978967D01*
X159119480Y-66031284D01*
X159116913Y-66035729D01*
X159113933Y-66038810D01*
X159113342Y-66039423D01*
X159077935Y-66103205D01*
X159076909Y-66105017D01*
X159040423Y-66168214D01*
X159038942Y-66171790D01*
X159038941Y-66171789D01*
X159038113Y-66173790D01*
X159038024Y-66174060D01*
X159036602Y-66177663D01*
X159018913Y-66248418D01*
X159018391Y-66250435D01*
X158999499Y-66320941D01*
X158998996Y-66324767D01*
X158996355Y-66338653D01*
X157047865Y-74132612D01*
X157045983Y-74136864D01*
X157045940Y-74139468D01*
X157030741Y-74171322D01*
X156966475Y-74267719D01*
X156912909Y-74312579D01*
X156843593Y-74321359D01*
X156780534Y-74291269D01*
X156762986Y-74271825D01*
X156661966Y-74132781D01*
X156517219Y-73988034D01*
X156517213Y-73988028D01*
X156351611Y-73867713D01*
X156258369Y-73820203D01*
X156207574Y-73772229D01*
X156190779Y-73704407D01*
X156213317Y-73638273D01*
X156258371Y-73599234D01*
X156351347Y-73551861D01*
X156516894Y-73431582D01*
X156516895Y-73431582D01*
X156661582Y-73286895D01*
X156661582Y-73286894D01*
X156781859Y-73121349D01*
X156874755Y-72939029D01*
X156937990Y-72744413D01*
X156946609Y-72690000D01*
X156103012Y-72690000D01*
X156135925Y-72632993D01*
X156170000Y-72505826D01*
X156170000Y-72374174D01*
X156135925Y-72247007D01*
X156103012Y-72190000D01*
X156946609Y-72190000D01*
X156937990Y-72135586D01*
X156874755Y-71940970D01*
X156781859Y-71758650D01*
X156661582Y-71593105D01*
X156661582Y-71593104D01*
X156516895Y-71448417D01*
X156351349Y-71328140D01*
X156258370Y-71280765D01*
X156207574Y-71232790D01*
X156190779Y-71164969D01*
X156213316Y-71098835D01*
X156258370Y-71059795D01*
X156262788Y-71057544D01*
X156351610Y-71012287D01*
X156372770Y-70996913D01*
X156517213Y-70891971D01*
X156517215Y-70891968D01*
X156517219Y-70891966D01*
X156661966Y-70747219D01*
X156661968Y-70747215D01*
X156661971Y-70747213D01*
X156716448Y-70672230D01*
X156782287Y-70581610D01*
X156875220Y-70399219D01*
X156938477Y-70204534D01*
X156970500Y-70002352D01*
X156970500Y-69797648D01*
X156948085Y-69656127D01*
X156938477Y-69595465D01*
X156875218Y-69400776D01*
X156810710Y-69274174D01*
X156782287Y-69218390D01*
X156730425Y-69147007D01*
X156661971Y-69052786D01*
X156517213Y-68908028D01*
X156351613Y-68787715D01*
X156351612Y-68787714D01*
X156351610Y-68787713D01*
X156294653Y-68758691D01*
X156169223Y-68694781D01*
X155974534Y-68631522D01*
X155799995Y-68603878D01*
X155772352Y-68599500D01*
X155567648Y-68599500D01*
X155543329Y-68603351D01*
X155365465Y-68631522D01*
X155170776Y-68694781D01*
X154988386Y-68787715D01*
X154822786Y-68908028D01*
X154678028Y-69052786D01*
X154557715Y-69218386D01*
X154464781Y-69400776D01*
X154401522Y-69595465D01*
X154369500Y-69797648D01*
X154369500Y-70002351D01*
X154401522Y-70204534D01*
X154464781Y-70399223D01*
X154493339Y-70455270D01*
X154548105Y-70562754D01*
X154557715Y-70581613D01*
X154678028Y-70747213D01*
X154822786Y-70891971D01*
X154971771Y-71000213D01*
X154988390Y-71012287D01*
X155060424Y-71048990D01*
X155081629Y-71059795D01*
X155132425Y-71107770D01*
X155149220Y-71175591D01*
X155126682Y-71241726D01*
X155081629Y-71280765D01*
X154988650Y-71328140D01*
X154823105Y-71448417D01*
X154823104Y-71448417D01*
X154678417Y-71593104D01*
X154678417Y-71593105D01*
X154558140Y-71758650D01*
X154465244Y-71940970D01*
X154402009Y-72135586D01*
X154393391Y-72190000D01*
X155236988Y-72190000D01*
X155204075Y-72247007D01*
X155170000Y-72374174D01*
X155170000Y-72505826D01*
X155204075Y-72632993D01*
X155236988Y-72690000D01*
X154393391Y-72690000D01*
X154402009Y-72744413D01*
X154465244Y-72939029D01*
X154558140Y-73121349D01*
X154678417Y-73286894D01*
X154678417Y-73286895D01*
X154823104Y-73431582D01*
X154988652Y-73551861D01*
X155081628Y-73599234D01*
X155132425Y-73647208D01*
X155149220Y-73715029D01*
X155126683Y-73781164D01*
X155081630Y-73820203D01*
X154988388Y-73867713D01*
X154822786Y-73988028D01*
X154678028Y-74132786D01*
X154557715Y-74298386D01*
X154464781Y-74480776D01*
X154401522Y-74675465D01*
X154369500Y-74877648D01*
X154369500Y-75082351D01*
X154401522Y-75284534D01*
X154464781Y-75479223D01*
X154513607Y-75575048D01*
X154540328Y-75627491D01*
X154557715Y-75661613D01*
X154678028Y-75827213D01*
X154822786Y-75971971D01*
X154971771Y-76080213D01*
X154988390Y-76092287D01*
X155079840Y-76138883D01*
X155081080Y-76139515D01*
X155131876Y-76187490D01*
X155148671Y-76255311D01*
X155126134Y-76321446D01*
X155081080Y-76360485D01*
X154988386Y-76407715D01*
X154822786Y-76528028D01*
X154678028Y-76672786D01*
X154557715Y-76838385D01*
X154484209Y-76982650D01*
X154467129Y-77000734D01*
X154453332Y-77021426D01*
X154443557Y-77025691D01*
X154436234Y-77033446D01*
X154412089Y-77039425D01*
X154389295Y-77049373D01*
X154373027Y-77049098D01*
X154368413Y-77050241D01*
X154354006Y-77048777D01*
X154163365Y-77018072D01*
X154140694Y-77012179D01*
X154135798Y-77010398D01*
X154131009Y-77008656D01*
X154078442Y-77004063D01*
X154078442Y-77004064D01*
X154073957Y-77003672D01*
X154017436Y-76994569D01*
X153995482Y-76996817D01*
X153983760Y-76995794D01*
X153983758Y-76995793D01*
X153973496Y-76994897D01*
X153973495Y-76994897D01*
X153921539Y-77004066D01*
X153921538Y-77004066D01*
X153917098Y-77004849D01*
X153860145Y-77010686D01*
X153839529Y-77018537D01*
X153827947Y-77020581D01*
X153827945Y-77020582D01*
X153817794Y-77022374D01*
X153817785Y-77022376D01*
X153769978Y-77044677D01*
X153761697Y-77048180D01*
X153712385Y-77066962D01*
X153704026Y-77073002D01*
X153704025Y-77073001D01*
X153694487Y-77079892D01*
X153674496Y-77089219D01*
X153630651Y-77126018D01*
X153627007Y-77128652D01*
X153627000Y-77128657D01*
X153602512Y-77146351D01*
X153584223Y-77159567D01*
X153584220Y-77159570D01*
X153577717Y-77167558D01*
X153561284Y-77184240D01*
X153553390Y-77190866D01*
X153553384Y-77190872D01*
X153523119Y-77234107D01*
X153520538Y-77237793D01*
X153484400Y-77282185D01*
X153475374Y-77302314D01*
X153468625Y-77311956D01*
X150755463Y-81187902D01*
X150736830Y-81208961D01*
X144101476Y-87180781D01*
X143149921Y-88037181D01*
X143004935Y-88167668D01*
X142941936Y-88197884D01*
X142921983Y-88199500D01*
X141799302Y-88199500D01*
X141732263Y-88179815D01*
X141686508Y-88127011D01*
X141676564Y-88057853D01*
X141681371Y-88037181D01*
X141698477Y-87984534D01*
X141730500Y-87782352D01*
X141730500Y-87577648D01*
X141698477Y-87375466D01*
X141635220Y-87180781D01*
X141635218Y-87180778D01*
X141635218Y-87180776D01*
X141601503Y-87114607D01*
X141542287Y-86998390D01*
X141534556Y-86987749D01*
X141421971Y-86832786D01*
X141277213Y-86688028D01*
X141111614Y-86567715D01*
X141105006Y-86564348D01*
X141018917Y-86520483D01*
X140968123Y-86472511D01*
X140951328Y-86404690D01*
X140973865Y-86338555D01*
X141018917Y-86299516D01*
X141111610Y-86252287D01*
X141169325Y-86210355D01*
X141277213Y-86131971D01*
X141277215Y-86131968D01*
X141277219Y-86131966D01*
X141421966Y-85987219D01*
X141421968Y-85987215D01*
X141421971Y-85987213D01*
X141487335Y-85897246D01*
X141542287Y-85821610D01*
X141635220Y-85639219D01*
X141698477Y-85444534D01*
X141730500Y-85242352D01*
X141730500Y-85037648D01*
X141698477Y-84835466D01*
X141635220Y-84640781D01*
X141635218Y-84640778D01*
X141635218Y-84640776D01*
X141550094Y-84473713D01*
X141542287Y-84458390D01*
X141534556Y-84447749D01*
X141421971Y-84292786D01*
X141277213Y-84148028D01*
X141111614Y-84027715D01*
X141105006Y-84024348D01*
X141018917Y-83980483D01*
X140968123Y-83932511D01*
X140951328Y-83864690D01*
X140973865Y-83798555D01*
X141018917Y-83759516D01*
X141111610Y-83712287D01*
X141216088Y-83636380D01*
X141277213Y-83591971D01*
X141277215Y-83591968D01*
X141277219Y-83591966D01*
X141421966Y-83447219D01*
X141421968Y-83447215D01*
X141421971Y-83447213D01*
X141517801Y-83315312D01*
X141542287Y-83281610D01*
X141635220Y-83099219D01*
X141698477Y-82904534D01*
X141730500Y-82702352D01*
X141730500Y-82497648D01*
X141698477Y-82295466D01*
X141675172Y-82223742D01*
X141635218Y-82100776D01*
X141580538Y-81993462D01*
X141542287Y-81918390D01*
X141534556Y-81907749D01*
X141421971Y-81752786D01*
X141277213Y-81608028D01*
X141111614Y-81487715D01*
X141105006Y-81484348D01*
X141018917Y-81440483D01*
X140968123Y-81392511D01*
X140951328Y-81324690D01*
X140973865Y-81258555D01*
X141018917Y-81219516D01*
X141111610Y-81172287D01*
X141132770Y-81156913D01*
X141277213Y-81051971D01*
X141277215Y-81051968D01*
X141277219Y-81051966D01*
X141421966Y-80907219D01*
X141421968Y-80907215D01*
X141421971Y-80907213D01*
X141517801Y-80775312D01*
X141542287Y-80741610D01*
X141635220Y-80559219D01*
X141698477Y-80364534D01*
X141730500Y-80162352D01*
X141730500Y-79957648D01*
X141698477Y-79755466D01*
X141635220Y-79560781D01*
X141635218Y-79560778D01*
X141635218Y-79560776D01*
X141550094Y-79393713D01*
X141542287Y-79378390D01*
X141534556Y-79367749D01*
X141421971Y-79212786D01*
X141277213Y-79068028D01*
X141111611Y-78947713D01*
X141018369Y-78900203D01*
X140967574Y-78852229D01*
X140950779Y-78784407D01*
X140973317Y-78718273D01*
X141018371Y-78679234D01*
X141111347Y-78631861D01*
X141276894Y-78511582D01*
X141276895Y-78511582D01*
X141421582Y-78366895D01*
X141421582Y-78366894D01*
X141541859Y-78201349D01*
X141634755Y-78019029D01*
X141697990Y-77824413D01*
X141706609Y-77770000D01*
X140863012Y-77770000D01*
X140895925Y-77712993D01*
X140930000Y-77585826D01*
X140930000Y-77454174D01*
X140895925Y-77327007D01*
X140863012Y-77270000D01*
X141706609Y-77270000D01*
X141697990Y-77215586D01*
X141634755Y-77020970D01*
X141541859Y-76838650D01*
X141421582Y-76673105D01*
X141421582Y-76673104D01*
X141276895Y-76528417D01*
X141111349Y-76408140D01*
X141018370Y-76360765D01*
X140967574Y-76312790D01*
X140950779Y-76244969D01*
X140973316Y-76178835D01*
X141018370Y-76139795D01*
X141018920Y-76139515D01*
X141111610Y-76092287D01*
X141132770Y-76076913D01*
X141277213Y-75971971D01*
X141277215Y-75971968D01*
X141277219Y-75971966D01*
X141421966Y-75827219D01*
X141421968Y-75827215D01*
X141421971Y-75827213D01*
X141517801Y-75695312D01*
X141542287Y-75661610D01*
X141635220Y-75479219D01*
X141698477Y-75284534D01*
X141730500Y-75082352D01*
X141730500Y-74877648D01*
X141698477Y-74675466D01*
X141635220Y-74480781D01*
X141635218Y-74480778D01*
X141635218Y-74480776D01*
X141550094Y-74313713D01*
X141542287Y-74298390D01*
X141522983Y-74271820D01*
X141421971Y-74132786D01*
X141277213Y-73988028D01*
X141111614Y-73867715D01*
X141105006Y-73864348D01*
X141018917Y-73820483D01*
X140968123Y-73772511D01*
X140951328Y-73704690D01*
X140973865Y-73638555D01*
X141018917Y-73599516D01*
X141111610Y-73552287D01*
X141132770Y-73536913D01*
X141277213Y-73431971D01*
X141277215Y-73431968D01*
X141277219Y-73431966D01*
X141421966Y-73287219D01*
X141421968Y-73287215D01*
X141421971Y-73287213D01*
X141517801Y-73155312D01*
X141542287Y-73121610D01*
X141635220Y-72939219D01*
X141698477Y-72744534D01*
X141730500Y-72542352D01*
X141730500Y-72337648D01*
X141707353Y-72191503D01*
X141698477Y-72135465D01*
X141635218Y-71940776D01*
X141542419Y-71758650D01*
X141542287Y-71758390D01*
X141534556Y-71747749D01*
X141421971Y-71592786D01*
X141277219Y-71448034D01*
X141240930Y-71421669D01*
X141198264Y-71366339D01*
X141192285Y-71296726D01*
X141224890Y-71234931D01*
X141285728Y-71200573D01*
X141300562Y-71198060D01*
X141337483Y-71194091D01*
X141472328Y-71143797D01*
X141472327Y-71143797D01*
X141472331Y-71143796D01*
X141587546Y-71057546D01*
X141673796Y-70942331D01*
X141724091Y-70807483D01*
X141730500Y-70747873D01*
X141730499Y-69052128D01*
X141724091Y-68992517D01*
X141673796Y-68857669D01*
X141673795Y-68857668D01*
X141673793Y-68857664D01*
X141587547Y-68742455D01*
X141587544Y-68742452D01*
X141472335Y-68656206D01*
X141472328Y-68656202D01*
X141337482Y-68605908D01*
X141337483Y-68605908D01*
X141277883Y-68599501D01*
X141277881Y-68599500D01*
X141277873Y-68599500D01*
X141277864Y-68599500D01*
X139582129Y-68599500D01*
X139582123Y-68599501D01*
X139522516Y-68605908D01*
X139387671Y-68656202D01*
X139387664Y-68656206D01*
X139272455Y-68742452D01*
X139272452Y-68742455D01*
X139186206Y-68857664D01*
X139186202Y-68857671D01*
X139135908Y-68992517D01*
X139131557Y-69032993D01*
X139129501Y-69052123D01*
X139129500Y-69052135D01*
X139129500Y-70747870D01*
X139129501Y-70747876D01*
X139135908Y-70807483D01*
X139186202Y-70942328D01*
X139186206Y-70942335D01*
X139272452Y-71057544D01*
X139272455Y-71057547D01*
X139387664Y-71143793D01*
X139387671Y-71143797D01*
X139432618Y-71160561D01*
X139522517Y-71194091D01*
X139559441Y-71198060D01*
X139623989Y-71224796D01*
X139663838Y-71282188D01*
X139666333Y-71352013D01*
X139630681Y-71412102D01*
X139619071Y-71421666D01*
X139582784Y-71448030D01*
X139438028Y-71592786D01*
X139317715Y-71758386D01*
X139224781Y-71940776D01*
X139161522Y-72135465D01*
X139129500Y-72337648D01*
X139129500Y-72542351D01*
X139161522Y-72744534D01*
X139224781Y-72939223D01*
X139273607Y-73035048D01*
X139300328Y-73087491D01*
X139317715Y-73121613D01*
X139438028Y-73287213D01*
X139582786Y-73431971D01*
X139731771Y-73540213D01*
X139748390Y-73552287D01*
X139839840Y-73598883D01*
X139841080Y-73599515D01*
X139891876Y-73647490D01*
X139908671Y-73715311D01*
X139886134Y-73781446D01*
X139841080Y-73820485D01*
X139748386Y-73867715D01*
X139582786Y-73988028D01*
X139438028Y-74132786D01*
X139317715Y-74298386D01*
X139224781Y-74480776D01*
X139161522Y-74675465D01*
X139129500Y-74877648D01*
X139129500Y-75082351D01*
X139161522Y-75284534D01*
X139224781Y-75479223D01*
X139273607Y-75575048D01*
X139300328Y-75627491D01*
X139317715Y-75661613D01*
X139438028Y-75827213D01*
X139582786Y-75971971D01*
X139731771Y-76080213D01*
X139748390Y-76092287D01*
X139820424Y-76128990D01*
X139841629Y-76139795D01*
X139892425Y-76187770D01*
X139909220Y-76255591D01*
X139886682Y-76321726D01*
X139841629Y-76360765D01*
X139748650Y-76408140D01*
X139583105Y-76528417D01*
X139583104Y-76528417D01*
X139438417Y-76673104D01*
X139438417Y-76673105D01*
X139318140Y-76838650D01*
X139225244Y-77020970D01*
X139162009Y-77215586D01*
X139153391Y-77270000D01*
X139996988Y-77270000D01*
X139964075Y-77327007D01*
X139930000Y-77454174D01*
X139930000Y-77585826D01*
X139964075Y-77712993D01*
X139996988Y-77770000D01*
X139153391Y-77770000D01*
X139162009Y-77824413D01*
X139225244Y-78019029D01*
X139318140Y-78201349D01*
X139438417Y-78366894D01*
X139438417Y-78366895D01*
X139583104Y-78511582D01*
X139748652Y-78631861D01*
X139841628Y-78679234D01*
X139892425Y-78727208D01*
X139909220Y-78795029D01*
X139886683Y-78861164D01*
X139841630Y-78900203D01*
X139748388Y-78947713D01*
X139582786Y-79068028D01*
X139438028Y-79212786D01*
X139317715Y-79378386D01*
X139224781Y-79560776D01*
X139161522Y-79755465D01*
X139129500Y-79957648D01*
X139129500Y-80162351D01*
X139161522Y-80364534D01*
X139224781Y-80559223D01*
X139273607Y-80655048D01*
X139300328Y-80707491D01*
X139317715Y-80741613D01*
X139438028Y-80907213D01*
X139582786Y-81051971D01*
X139731771Y-81160213D01*
X139748390Y-81172287D01*
X139801789Y-81199495D01*
X139841080Y-81219515D01*
X139891876Y-81267490D01*
X139908671Y-81335311D01*
X139886134Y-81401446D01*
X139841080Y-81440485D01*
X139748386Y-81487715D01*
X139582786Y-81608028D01*
X139438028Y-81752786D01*
X139317715Y-81918386D01*
X139224781Y-82100776D01*
X139161522Y-82295465D01*
X139129500Y-82497648D01*
X139129500Y-82702351D01*
X139161522Y-82904534D01*
X139224781Y-83099223D01*
X139273607Y-83195048D01*
X139300328Y-83247491D01*
X139317715Y-83281613D01*
X139438028Y-83447213D01*
X139582786Y-83591971D01*
X139731771Y-83700213D01*
X139748390Y-83712287D01*
X139811973Y-83744684D01*
X139841080Y-83759515D01*
X139891876Y-83807490D01*
X139908671Y-83875311D01*
X139886134Y-83941446D01*
X139841080Y-83980485D01*
X139748386Y-84027715D01*
X139582786Y-84148028D01*
X139438028Y-84292786D01*
X139317715Y-84458386D01*
X139224781Y-84640776D01*
X139161522Y-84835465D01*
X139129500Y-85037648D01*
X139129500Y-85242351D01*
X139161522Y-85444534D01*
X139224781Y-85639223D01*
X139317715Y-85821613D01*
X139438028Y-85987213D01*
X139582786Y-86131971D01*
X139690675Y-86210355D01*
X139748390Y-86252287D01*
X139838495Y-86298198D01*
X139841080Y-86299515D01*
X139891876Y-86347490D01*
X139908671Y-86415311D01*
X139886134Y-86481446D01*
X139841080Y-86520485D01*
X139748386Y-86567715D01*
X139582786Y-86688028D01*
X139438028Y-86832786D01*
X139317715Y-86998386D01*
X139224781Y-87180776D01*
X139161522Y-87375465D01*
X139129500Y-87577648D01*
X139129500Y-87782351D01*
X139161522Y-87984534D01*
X139178629Y-88037181D01*
X139180624Y-88107023D01*
X139144544Y-88166856D01*
X139081843Y-88197684D01*
X139060698Y-88199500D01*
X138473930Y-88199500D01*
X138468946Y-88198254D01*
X138394920Y-88199500D01*
X138320941Y-88199500D01*
X138317087Y-88200007D01*
X138316804Y-88200027D01*
X138314974Y-88200284D01*
X138314685Y-88200344D01*
X138310859Y-88200913D01*
X138240749Y-88220968D01*
X138238745Y-88221523D01*
X138168215Y-88240423D01*
X138164625Y-88241910D01*
X138164603Y-88241919D01*
X138162651Y-88242726D01*
X138162394Y-88242856D01*
X138158835Y-88244401D01*
X138096321Y-88281908D01*
X138094528Y-88282964D01*
X138031279Y-88319482D01*
X138028206Y-88321840D01*
X138016530Y-88329783D01*
X135095458Y-90082427D01*
X135027845Y-90100039D01*
X134961443Y-90078301D01*
X134917335Y-90024114D01*
X134909524Y-89954682D01*
X134915479Y-89932764D01*
X134943597Y-89857376D01*
X134943598Y-89857372D01*
X134949999Y-89797844D01*
X134950000Y-89797827D01*
X134950000Y-89150000D01*
X134033012Y-89150000D01*
X134065925Y-89092993D01*
X134100000Y-88965826D01*
X134100000Y-88834174D01*
X134065925Y-88707007D01*
X134033012Y-88650000D01*
X134950000Y-88650000D01*
X134950000Y-88002172D01*
X134949999Y-88002155D01*
X134943598Y-87942627D01*
X134943596Y-87942620D01*
X134893354Y-87807913D01*
X134893350Y-87807906D01*
X134807190Y-87692812D01*
X134807187Y-87692809D01*
X134692093Y-87606649D01*
X134692086Y-87606645D01*
X134557379Y-87556403D01*
X134557372Y-87556401D01*
X134497844Y-87550000D01*
X133850000Y-87550000D01*
X133850000Y-88466988D01*
X133792993Y-88434075D01*
X133665826Y-88400000D01*
X133534174Y-88400000D01*
X133407007Y-88434075D01*
X133350000Y-88466988D01*
X133350000Y-87550000D01*
X132702155Y-87550000D01*
X132642627Y-87556401D01*
X132642620Y-87556403D01*
X132507913Y-87606645D01*
X132507906Y-87606649D01*
X132392812Y-87692809D01*
X132392809Y-87692812D01*
X132306649Y-87807906D01*
X132306645Y-87807913D01*
X132256403Y-87942620D01*
X132256401Y-87942627D01*
X132250000Y-88002155D01*
X132250000Y-88650000D01*
X133166988Y-88650000D01*
X133134075Y-88707007D01*
X133100000Y-88834174D01*
X133100000Y-88965826D01*
X133134075Y-89092993D01*
X133166988Y-89150000D01*
X132250000Y-89150000D01*
X132250000Y-89797844D01*
X132256401Y-89857372D01*
X132256403Y-89857379D01*
X132306645Y-89992086D01*
X132306649Y-89992093D01*
X132392809Y-90107187D01*
X132392812Y-90107190D01*
X132507906Y-90193350D01*
X132507913Y-90193354D01*
X132639470Y-90242422D01*
X132695404Y-90284293D01*
X132719821Y-90349758D01*
X132704969Y-90418031D01*
X132683819Y-90446285D01*
X132569889Y-90560215D01*
X132444951Y-90732179D01*
X132348444Y-90921585D01*
X132282753Y-91123760D01*
X132249500Y-91333713D01*
X129600000Y-91333713D01*
X129600000Y-61724000D01*
X129619685Y-61656961D01*
X129672489Y-61611206D01*
X129724000Y-61600000D01*
X171876000Y-61600000D01*
X171943039Y-61619685D01*
G37*
%TD.AperFunction*%
%TD*%
M02*
