M48
; DRILL file {KiCad 9.0.7} date 2026-02-14T16:37:00+0200
; FORMAT={-:-/ absolute / metric / decimal}
; #@! TF.CreationDate,2026-02-14T16:37:00+02:00
; #@! TF.GenerationSoftware,Kicad,Pcbnew,9.0.7
; #@! TF.FileFunction,Plated,1,2,PTH
FMAT,2
METRIC
; #@! TA.AperFunction,Plated,PTH,ViaDrill
T1C0.300
; #@! TA.AperFunction,Plated,PTH,ComponentDrill
T2C1.000
%
G90
G05
T1
X136.0Y-103.2
X136.8Y-101.6
X145.6Y-96.8
X156.8Y-88.8
T2
X133.6Y-88.9
X133.6Y-91.44
X133.6Y-93.98
X133.6Y-96.52
X133.6Y-99.06
X133.6Y-101.6
X140.43Y-69.9
X140.43Y-72.44
X140.43Y-74.98
X140.43Y-77.52
X140.43Y-80.06
X140.43Y-82.6
X140.43Y-85.14
X140.43Y-87.68
X140.43Y-90.22
X140.43Y-92.76
X140.43Y-95.3
X140.43Y-97.84
X140.43Y-100.38
X140.43Y-102.92
X140.43Y-105.46
X155.67Y-69.9
X155.67Y-72.44
X155.67Y-74.98
X155.67Y-77.52
X155.67Y-80.06
X155.67Y-82.6
X155.67Y-85.14
X155.67Y-87.68
X155.67Y-90.22
X155.67Y-92.76
X155.67Y-95.3
X155.67Y-97.84
X155.67Y-100.38
X155.67Y-102.92
X155.67Y-105.46
X162.75Y-66.8
X162.75Y-69.34
X162.75Y-71.88
X162.75Y-74.42
X162.75Y-76.96
X162.75Y-79.5
X162.75Y-82.04
X162.75Y-84.58
X162.75Y-92.92
X162.75Y-95.46
X162.75Y-98.0
X162.75Y-100.54
X162.75Y-103.08
X162.75Y-105.62
M30
