%TF.GenerationSoftware,KiCad,Pcbnew,9.0.7*%
%TF.CreationDate,2026-02-14T16:35:21+02:00*%
%TF.ProjectId,Nano_Blackbox_Telemetry,4e616e6f-5f42-46c6-9163-6b626f785f54,rev?*%
%TF.SameCoordinates,Original*%
%TF.FileFunction,Copper,L1,Top*%
%TF.FilePolarity,Positive*%
%FSLAX46Y46*%
G04 Gerber Fmt 4.6, Leading zero omitted, Abs format (unit mm)*
G04 Created by KiCad (PCBNEW 9.0.7) date 2026-02-14 16:35:21*
%MOMM*%
%LPD*%
G01*
G04 APERTURE LIST*
%TA.AperFunction,Conductor*%
%ADD10C,0.200000*%
%TD*%
%TA.AperFunction,ComponentPad*%
%ADD11O,1.600000X1.600000*%
%TD*%
%TA.AperFunction,ComponentPad*%
%ADD12R,1.600000X1.600000*%
%TD*%
%TA.AperFunction,ComponentPad*%
%ADD13R,1.700000X1.700000*%
%TD*%
%TA.AperFunction,ComponentPad*%
%ADD14C,1.700000*%
%TD*%
%TA.AperFunction,ViaPad*%
%ADD15C,0.600000*%
%TD*%
G04 APERTURE END LIST*
D10*
%TO.N,/SD_DI*%
X140800000Y-102400000D02*
X145600000Y-96800000D01*
%TO.N,/SD_CS*%
X136800000Y-101600000D02*
X140000000Y-100800000D01*
%TO.N,/SDA*%
X157200000Y-88800000D02*
X156800000Y-88800000D01*
X157200000Y-88800000D02*
X156400000Y-88000000D01*
X160000000Y-76000000D02*
X162400000Y-75200000D01*
X157200000Y-87200000D02*
X156400000Y-87200000D01*
%TO.N,/SD_DO*%
X136000000Y-92000000D02*
X134400000Y-93600000D01*
%TO.N,/3V3*%
X162400000Y-93600000D02*
X156029050Y-102400000D01*
%TO.N,/SDA*%
X157200000Y-87200000D02*
X160000000Y-76000000D01*
%TO.N,/SD_DO*%
X136000000Y-103200000D02*
X136000000Y-92000000D01*
%TD*%
D11*
%TO.P,A1,30,VIN*%
%TO.N,unconnected-(A1-VIN-Pad30)*%
X155670000Y-69900000D03*
%TO.P,A1,29,GND*%
%TO.N,/GND*%
X155670000Y-72440000D03*
%TO.P,A1,28,~{RESET}*%
%TO.N,unconnected-(A1-~{RESET}-Pad28)*%
X155670000Y-74980000D03*
%TO.P,A1,27,+5V*%
%TO.N,/5V*%
X155670000Y-77520000D03*
%TO.P,A1,26,A7*%
%TO.N,unconnected-(A1-A7-Pad26)*%
X155670000Y-80060000D03*
%TO.P,A1,25,A6*%
%TO.N,unconnected-(A1-A6-Pad25)*%
X155670000Y-82600000D03*
%TO.P,A1,24,A5*%
%TO.N,/SCL*%
X155670000Y-85140000D03*
%TO.P,A1,23,A4*%
%TO.N,/SDA*%
X155670000Y-87680000D03*
%TO.P,A1,22,A3*%
%TO.N,unconnected-(A1-A3-Pad22)*%
X155670000Y-90220000D03*
%TO.P,A1,21,A2*%
%TO.N,unconnected-(A1-A2-Pad21)*%
X155670000Y-92760000D03*
%TO.P,A1,20,A1*%
%TO.N,unconnected-(A1-A1-Pad20)*%
X155670000Y-95300000D03*
%TO.P,A1,19,A0*%
%TO.N,unconnected-(A1-A0-Pad19)*%
X155670000Y-97840000D03*
%TO.P,A1,18,AREF*%
%TO.N,unconnected-(A1-AREF-Pad18)*%
X155670000Y-100380000D03*
%TO.P,A1,17,3V3*%
%TO.N,/3V3*%
X155670000Y-102920000D03*
%TO.P,A1,16,D13*%
%TO.N,/SD_SCK*%
X155670000Y-105460000D03*
%TO.P,A1,15,D12*%
%TO.N,/SD_DO*%
X140430000Y-105460000D03*
%TO.P,A1,14,D11*%
%TO.N,/SD_DI*%
X140430000Y-102920000D03*
%TO.P,A1,13,D10*%
%TO.N,/SD_CS*%
X140430000Y-100380000D03*
%TO.P,A1,12,D9*%
%TO.N,unconnected-(A1-D9-Pad12)*%
X140430000Y-97840000D03*
%TO.P,A1,11,D8*%
%TO.N,unconnected-(A1-D8-Pad11)*%
X140430000Y-95300000D03*
%TO.P,A1,10,D7*%
%TO.N,unconnected-(A1-D7-Pad10)*%
X140430000Y-92760000D03*
%TO.P,A1,9,D6*%
%TO.N,unconnected-(A1-D6-Pad9)*%
X140430000Y-90220000D03*
%TO.P,A1,8,D5*%
%TO.N,unconnected-(A1-D5-Pad8)*%
X140430000Y-87680000D03*
%TO.P,A1,7,D4*%
%TO.N,unconnected-(A1-D4-Pad7)*%
X140430000Y-85140000D03*
%TO.P,A1,6,D3*%
%TO.N,unconnected-(A1-D3-Pad6)*%
X140430000Y-82600000D03*
%TO.P,A1,5,D2*%
%TO.N,unconnected-(A1-D2-Pad5)*%
X140430000Y-80060000D03*
%TO.P,A1,4,GND*%
%TO.N,/GND*%
X140430000Y-77520000D03*
%TO.P,A1,3,~{RESET}*%
%TO.N,unconnected-(A1-~{RESET}-Pad3)*%
X140430000Y-74980000D03*
%TO.P,A1,2,D0/RX*%
%TO.N,unconnected-(A1-D0{slash}RX-Pad2)*%
X140430000Y-72440000D03*
D12*
%TO.P,A1,1,D1/TX*%
%TO.N,unconnected-(A1-D1{slash}TX-Pad1)*%
X140430000Y-69900000D03*
%TD*%
D13*
%TO.P,J3,1,Pin_1*%
%TO.N,/GND*%
X133600000Y-88900000D03*
D14*
%TO.P,J3,2,Pin_2*%
%TO.N,/5V*%
X133600000Y-91440000D03*
%TO.P,J3,3,Pin_3*%
%TO.N,/SD_DO*%
X133600000Y-93980000D03*
%TO.P,J3,4,Pin_4*%
%TO.N,/SD_DI*%
X133600000Y-96520000D03*
%TO.P,J3,5,Pin_5*%
%TO.N,/SD_SCK*%
X133600000Y-99060000D03*
%TO.P,J3,6,Pin_6*%
%TO.N,/SD_CS*%
X133600000Y-101600000D03*
%TD*%
D13*
%TO.P,J2,1,Pin_1*%
%TO.N,/3V3*%
X162750000Y-92920000D03*
D14*
%TO.P,J2,2,Pin_2*%
%TO.N,/GND*%
X162750000Y-95460000D03*
%TO.P,J2,3,Pin_3*%
%TO.N,/SCL*%
X162750000Y-98000000D03*
%TO.P,J2,4,Pin_4*%
%TO.N,/SDA*%
X162750000Y-100540000D03*
%TO.P,J2,5,Pin_5*%
%TO.N,unconnected-(J2-Pin_5-Pad5)*%
X162750000Y-103080000D03*
%TO.P,J2,6,Pin_6*%
%TO.N,unconnected-(J2-Pin_6-Pad6)*%
X162750000Y-105620000D03*
%TD*%
D13*
%TO.P,J1,1,Pin_1*%
%TO.N,/5V*%
X162750000Y-66800000D03*
D14*
%TO.P,J1,2,Pin_2*%
%TO.N,/GND*%
X162750000Y-69340000D03*
%TO.P,J1,3,Pin_3*%
%TO.N,/SCL*%
X162750000Y-71880000D03*
%TO.P,J1,4,Pin_4*%
%TO.N,/SDA*%
X162750000Y-74420000D03*
%TO.P,J1,5,Pin_5*%
%TO.N,unconnected-(J1-Pin_5-Pad5)*%
X162750000Y-76960000D03*
%TO.P,J1,6,Pin_6*%
%TO.N,unconnected-(J1-Pin_6-Pad6)*%
X162750000Y-79500000D03*
%TO.P,J1,7,Pin_7*%
%TO.N,unconnected-(J1-Pin_7-Pad7)*%
X162750000Y-82040000D03*
%TO.P,J1,8,Pin_8*%
%TO.N,unconnected-(J1-Pin_8-Pad8)*%
X162750000Y-84580000D03*
%TD*%
D15*
%TO.N,/SDA*%
X156800000Y-88800000D03*
%TO.N,/SD_CS*%
X136800000Y-101600000D03*
%TO.N,/SD_DO*%
X136000000Y-103200000D03*
%TO.N,/SD_DI*%
X145600000Y-96800000D03*
%TD*%
%TA.AperFunction,Conductor*%
%TO.N,/GND*%
G36*
X170343039Y-62419685D02*
G01*
X170388794Y-62472489D01*
X170400000Y-62524000D01*
X170400000Y-116676000D01*
X170380315Y-116743039D01*
X170327511Y-116788794D01*
X170276000Y-116800000D01*
X131324000Y-116800000D01*
X131256961Y-116780315D01*
X131211206Y-116727511D01*
X131200000Y-116676000D01*
X131200000Y-91333713D01*
X132249500Y-91333713D01*
X132249500Y-91546286D01*
X132275818Y-91712455D01*
X132282754Y-91756243D01*
X132336268Y-91920942D01*
X132348444Y-91958414D01*
X132444951Y-92147820D01*
X132569890Y-92319786D01*
X132720213Y-92470109D01*
X132892182Y-92595050D01*
X132900946Y-92599516D01*
X132951742Y-92647491D01*
X132968536Y-92715312D01*
X132945998Y-92781447D01*
X132900946Y-92820484D01*
X132892182Y-92824949D01*
X132720213Y-92949890D01*
X132569890Y-93100213D01*
X132444951Y-93272179D01*
X132348444Y-93461585D01*
X132282753Y-93663760D01*
X132249500Y-93873713D01*
X132249500Y-94086286D01*
X132282753Y-94296239D01*
X132348444Y-94498414D01*
X132444951Y-94687820D01*
X132569890Y-94859786D01*
X132720213Y-95010109D01*
X132892182Y-95135050D01*
X132900946Y-95139516D01*
X132951742Y-95187491D01*
X132968536Y-95255312D01*
X132945998Y-95321447D01*
X132900946Y-95360484D01*
X132892182Y-95364949D01*
X132720213Y-95489890D01*
X132569890Y-95640213D01*
X132444951Y-95812179D01*
X132348444Y-96001585D01*
X132282753Y-96203760D01*
X132269140Y-96289711D01*
X132249500Y-96413713D01*
X132249500Y-96626287D01*
X132282754Y-96836243D01*
X132346847Y-97033501D01*
X132348444Y-97038414D01*
X132444951Y-97227820D01*
X132569890Y-97399786D01*
X132720213Y-97550109D01*
X132892182Y-97675050D01*
X132900946Y-97679516D01*
X132951742Y-97727491D01*
X132968536Y-97795312D01*
X132945998Y-97861447D01*
X132900946Y-97900484D01*
X132892182Y-97904949D01*
X132720213Y-98029890D01*
X132569890Y-98180213D01*
X132444951Y-98352179D01*
X132348444Y-98541585D01*
X132282753Y-98743760D01*
X132249500Y-98953713D01*
X132249500Y-99166286D01*
X132275827Y-99332512D01*
X132282754Y-99376243D01*
X132285583Y-99384951D01*
X132348444Y-99578414D01*
X132444951Y-99767820D01*
X132569890Y-99939786D01*
X132720213Y-100090109D01*
X132892182Y-100215050D01*
X132900946Y-100219516D01*
X132951742Y-100267491D01*
X132968536Y-100335312D01*
X132945998Y-100401447D01*
X132900946Y-100440484D01*
X132892182Y-100444949D01*
X132720213Y-100569890D01*
X132569890Y-100720213D01*
X132444951Y-100892179D01*
X132348444Y-101081585D01*
X132282753Y-101283760D01*
X132249500Y-101493713D01*
X132249500Y-101706286D01*
X132275827Y-101872512D01*
X132282754Y-101916243D01*
X132327565Y-102054157D01*
X132348444Y-102118414D01*
X132444951Y-102307820D01*
X132569890Y-102479786D01*
X132720213Y-102630109D01*
X132892179Y-102755048D01*
X132892181Y-102755049D01*
X132892184Y-102755051D01*
X133081588Y-102851557D01*
X133283757Y-102917246D01*
X133493713Y-102950500D01*
X133493714Y-102950500D01*
X133706286Y-102950500D01*
X133706287Y-102950500D01*
X133916243Y-102917246D01*
X134118412Y-102851557D01*
X134307816Y-102755051D01*
X134329789Y-102739086D01*
X134479786Y-102630109D01*
X134479788Y-102630106D01*
X134479792Y-102630104D01*
X134630104Y-102479792D01*
X134630106Y-102479788D01*
X134630109Y-102479786D01*
X134739086Y-102329789D01*
X134755051Y-102307816D01*
X134851557Y-102118412D01*
X134917246Y-101916243D01*
X134950500Y-101706287D01*
X134950500Y-101493713D01*
X134917246Y-101283757D01*
X134851557Y-101081588D01*
X134755051Y-100892184D01*
X134755049Y-100892181D01*
X134755048Y-100892179D01*
X134630109Y-100720213D01*
X134479786Y-100569890D01*
X134307820Y-100444951D01*
X134307115Y-100444591D01*
X134299054Y-100440485D01*
X134248259Y-100392512D01*
X134231463Y-100324692D01*
X134253999Y-100258556D01*
X134299054Y-100219515D01*
X134307816Y-100215051D01*
X134329789Y-100199086D01*
X134479786Y-100090109D01*
X134479788Y-100090106D01*
X134479792Y-100090104D01*
X134630104Y-99939792D01*
X134630106Y-99939788D01*
X134630109Y-99939786D01*
X134755048Y-99767820D01*
X134755047Y-99767820D01*
X134755051Y-99767816D01*
X134851557Y-99578412D01*
X134917246Y-99376243D01*
X134950500Y-99166287D01*
X134950500Y-98953713D01*
X134917246Y-98743757D01*
X134851557Y-98541588D01*
X134755051Y-98352184D01*
X134755049Y-98352181D01*
X134755048Y-98352179D01*
X134630109Y-98180213D01*
X134479786Y-98029890D01*
X134307820Y-97904951D01*
X134307115Y-97904591D01*
X134299054Y-97900485D01*
X134248259Y-97852512D01*
X134231463Y-97784692D01*
X134253999Y-97718556D01*
X134299054Y-97679515D01*
X134307816Y-97675051D01*
X134374176Y-97626838D01*
X134479786Y-97550109D01*
X134479788Y-97550106D01*
X134479792Y-97550104D01*
X134630104Y-97399792D01*
X134630106Y-97399788D01*
X134630109Y-97399786D01*
X134755048Y-97227820D01*
X134755047Y-97227820D01*
X134755051Y-97227816D01*
X134851557Y-97038412D01*
X134917246Y-96836243D01*
X134950500Y-96626287D01*
X134950500Y-96413713D01*
X134917246Y-96203757D01*
X134851557Y-96001588D01*
X134755051Y-95812184D01*
X134755049Y-95812181D01*
X134755048Y-95812179D01*
X134630109Y-95640213D01*
X134479786Y-95489890D01*
X134307820Y-95364951D01*
X134307115Y-95364591D01*
X134299054Y-95360485D01*
X134248259Y-95312512D01*
X134231463Y-95244692D01*
X134253999Y-95178556D01*
X134299054Y-95139515D01*
X134307816Y-95135051D01*
X134411252Y-95059901D01*
X134479786Y-95010109D01*
X134479788Y-95010106D01*
X134479792Y-95010104D01*
X134630104Y-94859792D01*
X134630106Y-94859788D01*
X134630109Y-94859786D01*
X134755048Y-94687820D01*
X134755047Y-94687820D01*
X134755051Y-94687816D01*
X134851557Y-94498412D01*
X134917246Y-94296243D01*
X134950500Y-94086287D01*
X134950500Y-93950097D01*
X134970185Y-93883058D01*
X134986819Y-93862416D01*
X135187819Y-93661416D01*
X135249142Y-93627931D01*
X135318834Y-93632915D01*
X135374767Y-93674787D01*
X135399184Y-93740251D01*
X135399500Y-93749097D01*
X135399500Y-102620234D01*
X135379815Y-102687273D01*
X135378602Y-102689125D01*
X135290609Y-102820814D01*
X135290602Y-102820827D01*
X135230264Y-102966498D01*
X135230261Y-102966510D01*
X135199500Y-103121153D01*
X135199500Y-103278846D01*
X135230261Y-103433489D01*
X135230264Y-103433501D01*
X135290602Y-103579172D01*
X135290609Y-103579185D01*
X135378210Y-103710288D01*
X135378213Y-103710292D01*
X135489707Y-103821786D01*
X135489711Y-103821789D01*
X135620814Y-103909390D01*
X135620827Y-103909397D01*
X135742479Y-103959786D01*
X135766503Y-103969737D01*
X135921153Y-104000499D01*
X135921156Y-104000500D01*
X135921158Y-104000500D01*
X136078844Y-104000500D01*
X136078845Y-104000499D01*
X136233497Y-103969737D01*
X136379179Y-103909394D01*
X136510289Y-103821789D01*
X136621789Y-103710289D01*
X136709394Y-103579179D01*
X136769737Y-103433497D01*
X136800500Y-103278842D01*
X136800500Y-103121158D01*
X136800500Y-103121155D01*
X136800499Y-103121153D01*
X136769738Y-102966510D01*
X136769737Y-102966503D01*
X136769735Y-102966498D01*
X136709397Y-102820827D01*
X136709390Y-102820814D01*
X136621398Y-102689125D01*
X136615747Y-102671078D01*
X136605523Y-102655169D01*
X136601071Y-102624207D01*
X136600520Y-102622447D01*
X136600500Y-102620234D01*
X136600500Y-102524500D01*
X136620185Y-102457461D01*
X136672989Y-102411706D01*
X136724500Y-102400500D01*
X136878844Y-102400500D01*
X136878845Y-102400499D01*
X137033497Y-102369737D01*
X137179179Y-102309394D01*
X137310289Y-102221789D01*
X137421789Y-102110289D01*
X137432700Y-102093958D01*
X137486310Y-102049151D01*
X137505722Y-102042549D01*
X139689671Y-101496562D01*
X139716208Y-101497640D01*
X139742632Y-101494991D01*
X139755039Y-101499219D01*
X139759482Y-101499400D01*
X139776039Y-101506376D01*
X139841079Y-101539516D01*
X139891875Y-101587490D01*
X139908670Y-101655311D01*
X139886132Y-101721446D01*
X139841079Y-101760484D01*
X139748391Y-101807711D01*
X139748389Y-101807712D01*
X139582786Y-101928028D01*
X139438028Y-102072786D01*
X139317715Y-102238386D01*
X139224781Y-102420776D01*
X139161522Y-102615465D01*
X139129500Y-102817648D01*
X139129500Y-103022351D01*
X139161522Y-103224534D01*
X139224781Y-103419223D01*
X139288691Y-103544653D01*
X139306280Y-103579172D01*
X139317715Y-103601613D01*
X139438028Y-103767213D01*
X139582786Y-103911971D01*
X139737749Y-104024556D01*
X139748390Y-104032287D01*
X139839840Y-104078883D01*
X139841080Y-104079515D01*
X139891876Y-104127490D01*
X139908671Y-104195311D01*
X139886134Y-104261446D01*
X139841080Y-104300485D01*
X139748386Y-104347715D01*
X139582786Y-104468028D01*
X139438028Y-104612786D01*
X139317715Y-104778386D01*
X139224781Y-104960776D01*
X139161522Y-105155465D01*
X139129500Y-105357648D01*
X139129500Y-105562351D01*
X139161522Y-105764534D01*
X139224781Y-105959223D01*
X139317715Y-106141613D01*
X139438028Y-106307213D01*
X139582786Y-106451971D01*
X139737749Y-106564556D01*
X139748390Y-106572287D01*
X139864607Y-106631503D01*
X139930776Y-106665218D01*
X139930778Y-106665218D01*
X139930781Y-106665220D01*
X140035137Y-106699127D01*
X140125465Y-106728477D01*
X140226557Y-106744488D01*
X140327648Y-106760500D01*
X140327649Y-106760500D01*
X140532351Y-106760500D01*
X140532352Y-106760500D01*
X140734534Y-106728477D01*
X140929219Y-106665220D01*
X141111610Y-106572287D01*
X141211400Y-106499786D01*
X141277213Y-106451971D01*
X141277215Y-106451968D01*
X141277219Y-106451966D01*
X141421966Y-106307219D01*
X141421968Y-106307215D01*
X141421971Y-106307213D01*
X141474732Y-106234590D01*
X141542287Y-106141610D01*
X141635220Y-105959219D01*
X141698477Y-105764534D01*
X141730500Y-105562352D01*
X141730500Y-105357648D01*
X141698477Y-105155466D01*
X141635220Y-104960781D01*
X141635218Y-104960778D01*
X141635218Y-104960776D01*
X141601503Y-104894607D01*
X141542287Y-104778390D01*
X141514550Y-104740213D01*
X141421971Y-104612786D01*
X141277213Y-104468028D01*
X141111614Y-104347715D01*
X141079902Y-104331557D01*
X141018917Y-104300483D01*
X140968123Y-104252511D01*
X140951328Y-104184690D01*
X140973865Y-104118555D01*
X141018917Y-104079516D01*
X141111610Y-104032287D01*
X141132770Y-104016913D01*
X141277213Y-103911971D01*
X141277215Y-103911968D01*
X141277219Y-103911966D01*
X141421966Y-103767219D01*
X141421968Y-103767215D01*
X141421971Y-103767213D01*
X141474732Y-103694590D01*
X141542287Y-103601610D01*
X141635220Y-103419219D01*
X141698477Y-103224534D01*
X141730500Y-103022352D01*
X141730500Y-102817648D01*
X141720585Y-102755048D01*
X141698477Y-102615465D01*
X141639646Y-102434404D01*
X141637651Y-102364562D01*
X141663427Y-102315389D01*
X145682186Y-97626837D01*
X145740760Y-97588748D01*
X145752121Y-97585923D01*
X145833497Y-97569737D01*
X145979179Y-97509394D01*
X146110289Y-97421789D01*
X146221789Y-97310289D01*
X146309394Y-97179179D01*
X146369737Y-97033497D01*
X146400500Y-96878842D01*
X146400500Y-96721158D01*
X146400500Y-96721155D01*
X146400499Y-96721153D01*
X146392861Y-96682754D01*
X146369737Y-96566503D01*
X146344353Y-96505220D01*
X146309397Y-96420827D01*
X146309390Y-96420814D01*
X146221789Y-96289711D01*
X146221786Y-96289707D01*
X146110292Y-96178213D01*
X146110288Y-96178210D01*
X145979185Y-96090609D01*
X145979172Y-96090602D01*
X145833501Y-96030264D01*
X145833489Y-96030261D01*
X145678845Y-95999500D01*
X145678842Y-95999500D01*
X145521158Y-95999500D01*
X145521155Y-95999500D01*
X145366510Y-96030261D01*
X145366498Y-96030264D01*
X145220827Y-96090602D01*
X145220814Y-96090609D01*
X145089711Y-96178210D01*
X145089707Y-96178213D01*
X144978213Y-96289707D01*
X144978210Y-96289711D01*
X144890609Y-96420814D01*
X144890602Y-96420827D01*
X144830264Y-96566498D01*
X144830261Y-96566510D01*
X144799500Y-96721153D01*
X144799500Y-96765322D01*
X144779815Y-96832361D01*
X144769648Y-96846020D01*
X141920386Y-100170158D01*
X141861811Y-100208248D01*
X141791943Y-100208623D01*
X141732963Y-100171165D01*
X141703766Y-100108859D01*
X141698477Y-100075466D01*
X141635220Y-99880781D01*
X141635218Y-99880778D01*
X141635218Y-99880776D01*
X141577661Y-99767816D01*
X141542287Y-99698390D01*
X141514550Y-99660213D01*
X141421971Y-99532786D01*
X141277213Y-99388028D01*
X141111614Y-99267715D01*
X141079902Y-99251557D01*
X141018917Y-99220483D01*
X140968123Y-99172511D01*
X140951328Y-99104690D01*
X140973865Y-99038555D01*
X141018917Y-98999516D01*
X141111610Y-98952287D01*
X141211400Y-98879786D01*
X141277213Y-98831971D01*
X141277215Y-98831968D01*
X141277219Y-98831966D01*
X141421966Y-98687219D01*
X141421968Y-98687215D01*
X141421971Y-98687213D01*
X141527774Y-98541585D01*
X141542287Y-98521610D01*
X141635220Y-98339219D01*
X141698477Y-98144534D01*
X141730500Y-97942352D01*
X141730500Y-97737648D01*
X141700796Y-97550109D01*
X141698477Y-97535465D01*
X141635218Y-97340776D01*
X141577661Y-97227816D01*
X141542287Y-97158390D01*
X141514550Y-97120213D01*
X141421971Y-96992786D01*
X141277213Y-96848028D01*
X141111614Y-96727715D01*
X141098735Y-96721153D01*
X141018917Y-96680483D01*
X140968123Y-96632511D01*
X140951328Y-96564690D01*
X140973865Y-96498555D01*
X141018917Y-96459516D01*
X141111610Y-96412287D01*
X141132770Y-96396913D01*
X141277213Y-96291971D01*
X141277215Y-96291968D01*
X141277219Y-96291966D01*
X141421966Y-96147219D01*
X141421968Y-96147215D01*
X141421971Y-96147213D01*
X141484043Y-96061776D01*
X141542287Y-95981610D01*
X141635220Y-95799219D01*
X141698477Y-95604534D01*
X141730500Y-95402352D01*
X141730500Y-95197648D01*
X141700796Y-95010109D01*
X141698477Y-94995465D01*
X141635218Y-94800776D01*
X141577661Y-94687816D01*
X141542287Y-94618390D01*
X141534556Y-94607749D01*
X141421971Y-94452786D01*
X141277213Y-94308028D01*
X141111614Y-94187715D01*
X141105006Y-94184348D01*
X141018917Y-94140483D01*
X140968123Y-94092511D01*
X140951328Y-94024690D01*
X140973865Y-93958555D01*
X141018917Y-93919516D01*
X141111610Y-93872287D01*
X141132770Y-93856913D01*
X141277213Y-93751971D01*
X141277215Y-93751968D01*
X141277219Y-93751966D01*
X141421966Y-93607219D01*
X141421968Y-93607215D01*
X141421971Y-93607213D01*
X141527774Y-93461585D01*
X141542287Y-93441610D01*
X141635220Y-93259219D01*
X141698477Y-93064534D01*
X141730500Y-92862352D01*
X141730500Y-92657648D01*
X141700796Y-92470109D01*
X141698477Y-92455465D01*
X141635218Y-92260776D01*
X141570176Y-92133126D01*
X141542287Y-92078390D01*
X141501416Y-92022135D01*
X141421971Y-91912786D01*
X141277213Y-91768028D01*
X141111614Y-91647715D01*
X141069392Y-91626202D01*
X141018917Y-91600483D01*
X140968123Y-91552511D01*
X140951328Y-91484690D01*
X140973865Y-91418555D01*
X141018917Y-91379516D01*
X141111610Y-91332287D01*
X141132770Y-91316913D01*
X141277213Y-91211971D01*
X141277215Y-91211968D01*
X141277219Y-91211966D01*
X141421966Y-91067219D01*
X141421968Y-91067215D01*
X141421971Y-91067213D01*
X141527774Y-90921585D01*
X141542287Y-90901610D01*
X141635220Y-90719219D01*
X141698477Y-90524534D01*
X141730500Y-90322352D01*
X141730500Y-90117648D01*
X141698477Y-89915466D01*
X141679603Y-89857379D01*
X141660254Y-89797827D01*
X141635220Y-89720781D01*
X141635218Y-89720778D01*
X141635218Y-89720776D01*
X141601503Y-89654607D01*
X141542287Y-89538390D01*
X141521223Y-89509397D01*
X141421971Y-89372786D01*
X141277213Y-89228028D01*
X141111614Y-89107715D01*
X141082720Y-89092993D01*
X141018917Y-89060483D01*
X140968123Y-89012511D01*
X140951328Y-88944690D01*
X140973865Y-88878555D01*
X141018917Y-88839516D01*
X141111610Y-88792287D01*
X141209805Y-88720945D01*
X141277213Y-88671971D01*
X141277215Y-88671968D01*
X141277219Y-88671966D01*
X141421966Y-88527219D01*
X141421968Y-88527215D01*
X141421971Y-88527213D01*
X141474732Y-88454590D01*
X141542287Y-88361610D01*
X141635220Y-88179219D01*
X141698477Y-87984534D01*
X141730500Y-87782352D01*
X141730500Y-87577648D01*
X141706838Y-87428256D01*
X141698477Y-87375465D01*
X141635218Y-87180776D01*
X141601503Y-87114607D01*
X141542287Y-86998390D01*
X141534556Y-86987749D01*
X141421971Y-86832786D01*
X141277213Y-86688028D01*
X141111614Y-86567715D01*
X141105006Y-86564348D01*
X141018917Y-86520483D01*
X140968123Y-86472511D01*
X140951328Y-86404690D01*
X140973865Y-86338555D01*
X141018917Y-86299516D01*
X141111610Y-86252287D01*
X141132770Y-86236913D01*
X141277213Y-86131971D01*
X141277215Y-86131968D01*
X141277219Y-86131966D01*
X141421966Y-85987219D01*
X141421968Y-85987215D01*
X141421971Y-85987213D01*
X141487335Y-85897246D01*
X141542287Y-85821610D01*
X141635220Y-85639219D01*
X141698477Y-85444534D01*
X141730500Y-85242352D01*
X141730500Y-85037648D01*
X141698477Y-84835466D01*
X141635220Y-84640781D01*
X141635218Y-84640778D01*
X141635218Y-84640776D01*
X141550094Y-84473713D01*
X141542287Y-84458390D01*
X141534556Y-84447749D01*
X141421971Y-84292786D01*
X141277213Y-84148028D01*
X141111614Y-84027715D01*
X141105006Y-84024348D01*
X141018917Y-83980483D01*
X140968123Y-83932511D01*
X140951328Y-83864690D01*
X140973865Y-83798555D01*
X141018917Y-83759516D01*
X141111610Y-83712287D01*
X141132770Y-83696913D01*
X141277213Y-83591971D01*
X141277215Y-83591968D01*
X141277219Y-83591966D01*
X141421966Y-83447219D01*
X141421968Y-83447215D01*
X141421971Y-83447213D01*
X141517801Y-83315312D01*
X141542287Y-83281610D01*
X141635220Y-83099219D01*
X141698477Y-82904534D01*
X141730500Y-82702352D01*
X141730500Y-82497648D01*
X141698477Y-82295466D01*
X141635220Y-82100781D01*
X141635218Y-82100778D01*
X141635218Y-82100776D01*
X141550094Y-81933713D01*
X141542287Y-81918390D01*
X141534556Y-81907749D01*
X141421971Y-81752786D01*
X141277213Y-81608028D01*
X141111614Y-81487715D01*
X141105006Y-81484348D01*
X141018917Y-81440483D01*
X140968123Y-81392511D01*
X140951328Y-81324690D01*
X140973865Y-81258555D01*
X141018917Y-81219516D01*
X141111610Y-81172287D01*
X141132770Y-81156913D01*
X141277213Y-81051971D01*
X141277215Y-81051968D01*
X141277219Y-81051966D01*
X141421966Y-80907219D01*
X141421968Y-80907215D01*
X141421971Y-80907213D01*
X141517801Y-80775312D01*
X141542287Y-80741610D01*
X141635220Y-80559219D01*
X141698477Y-80364534D01*
X141730500Y-80162352D01*
X141730500Y-79957648D01*
X141698477Y-79755466D01*
X141635220Y-79560781D01*
X141635218Y-79560778D01*
X141635218Y-79560776D01*
X141550094Y-79393713D01*
X141542287Y-79378390D01*
X141534556Y-79367749D01*
X141421971Y-79212786D01*
X141277213Y-79068028D01*
X141111611Y-78947713D01*
X141018369Y-78900203D01*
X140967574Y-78852229D01*
X140950779Y-78784407D01*
X140973317Y-78718273D01*
X141018371Y-78679234D01*
X141111347Y-78631861D01*
X141276894Y-78511582D01*
X141276895Y-78511582D01*
X141421582Y-78366895D01*
X141421582Y-78366894D01*
X141541859Y-78201349D01*
X141634755Y-78019029D01*
X141697990Y-77824413D01*
X141706609Y-77770000D01*
X140863012Y-77770000D01*
X140895925Y-77712993D01*
X140930000Y-77585826D01*
X140930000Y-77454174D01*
X140895925Y-77327007D01*
X140863012Y-77270000D01*
X141706609Y-77270000D01*
X141697990Y-77215586D01*
X141634755Y-77020970D01*
X141541859Y-76838650D01*
X141421582Y-76673105D01*
X141421582Y-76673104D01*
X141276895Y-76528417D01*
X141111349Y-76408140D01*
X141018370Y-76360765D01*
X140967574Y-76312790D01*
X140950779Y-76244969D01*
X140973316Y-76178835D01*
X141018370Y-76139795D01*
X141018920Y-76139515D01*
X141111610Y-76092287D01*
X141132770Y-76076913D01*
X141277213Y-75971971D01*
X141277215Y-75971968D01*
X141277219Y-75971966D01*
X141421966Y-75827219D01*
X141421968Y-75827215D01*
X141421971Y-75827213D01*
X141476243Y-75752512D01*
X141542287Y-75661610D01*
X141635220Y-75479219D01*
X141698477Y-75284534D01*
X141730500Y-75082352D01*
X141730500Y-74877648D01*
X141698477Y-74675466D01*
X141635220Y-74480781D01*
X141635218Y-74480778D01*
X141635218Y-74480776D01*
X141550094Y-74313713D01*
X141542287Y-74298390D01*
X141534556Y-74287749D01*
X141421971Y-74132786D01*
X141277213Y-73988028D01*
X141111614Y-73867715D01*
X141105006Y-73864348D01*
X141018917Y-73820483D01*
X140968123Y-73772511D01*
X140951328Y-73704690D01*
X140973865Y-73638555D01*
X141018917Y-73599516D01*
X141111610Y-73552287D01*
X141132770Y-73536913D01*
X141277213Y-73431971D01*
X141277215Y-73431968D01*
X141277219Y-73431966D01*
X141421966Y-73287219D01*
X141421968Y-73287215D01*
X141421971Y-73287213D01*
X141517801Y-73155312D01*
X141542287Y-73121610D01*
X141635220Y-72939219D01*
X141698477Y-72744534D01*
X141730500Y-72542352D01*
X141730500Y-72337648D01*
X141708103Y-72196239D01*
X141698477Y-72135465D01*
X141635218Y-71940776D01*
X141542419Y-71758650D01*
X141542287Y-71758390D01*
X141534556Y-71747749D01*
X141421971Y-71592786D01*
X141277219Y-71448034D01*
X141240930Y-71421669D01*
X141198264Y-71366339D01*
X141192285Y-71296726D01*
X141224890Y-71234931D01*
X141285728Y-71200573D01*
X141300562Y-71198060D01*
X141337483Y-71194091D01*
X141472328Y-71143797D01*
X141472327Y-71143797D01*
X141472331Y-71143796D01*
X141587546Y-71057546D01*
X141673796Y-70942331D01*
X141724091Y-70807483D01*
X141730500Y-70747873D01*
X141730499Y-69797648D01*
X154369500Y-69797648D01*
X154369500Y-70002351D01*
X154401522Y-70204534D01*
X154464781Y-70399223D01*
X154493339Y-70455270D01*
X154548105Y-70562754D01*
X154557715Y-70581613D01*
X154678028Y-70747213D01*
X154822786Y-70891971D01*
X154971771Y-71000213D01*
X154988390Y-71012287D01*
X155060424Y-71048990D01*
X155081629Y-71059795D01*
X155132425Y-71107770D01*
X155149220Y-71175591D01*
X155126682Y-71241726D01*
X155081629Y-71280765D01*
X154988650Y-71328140D01*
X154823105Y-71448417D01*
X154823104Y-71448417D01*
X154678417Y-71593104D01*
X154678417Y-71593105D01*
X154558140Y-71758650D01*
X154465244Y-71940970D01*
X154402009Y-72135586D01*
X154393391Y-72190000D01*
X155236988Y-72190000D01*
X155204075Y-72247007D01*
X155170000Y-72374174D01*
X155170000Y-72505826D01*
X155204075Y-72632993D01*
X155236988Y-72690000D01*
X154393391Y-72690000D01*
X154402009Y-72744413D01*
X154465244Y-72939029D01*
X154558140Y-73121349D01*
X154678417Y-73286894D01*
X154678417Y-73286895D01*
X154823104Y-73431582D01*
X154988652Y-73551861D01*
X155081628Y-73599234D01*
X155132425Y-73647208D01*
X155149220Y-73715029D01*
X155126683Y-73781164D01*
X155081630Y-73820203D01*
X154988388Y-73867713D01*
X154822786Y-73988028D01*
X154678028Y-74132786D01*
X154557715Y-74298386D01*
X154464781Y-74480776D01*
X154401522Y-74675465D01*
X154369500Y-74877648D01*
X154369500Y-75082351D01*
X154401522Y-75284534D01*
X154464781Y-75479223D01*
X154496990Y-75542435D01*
X154557268Y-75660737D01*
X154557715Y-75661613D01*
X154678028Y-75827213D01*
X154822786Y-75971971D01*
X154971771Y-76080213D01*
X154988390Y-76092287D01*
X155079840Y-76138883D01*
X155081080Y-76139515D01*
X155131876Y-76187490D01*
X155148671Y-76255311D01*
X155126134Y-76321446D01*
X155081080Y-76360485D01*
X154988386Y-76407715D01*
X154822786Y-76528028D01*
X154678028Y-76672786D01*
X154557715Y-76838386D01*
X154464781Y-77020776D01*
X154401522Y-77215465D01*
X154369500Y-77417648D01*
X154369500Y-77622351D01*
X154401522Y-77824534D01*
X154464781Y-78019223D01*
X154513607Y-78115048D01*
X154540328Y-78167491D01*
X154557715Y-78201613D01*
X154678028Y-78367213D01*
X154822786Y-78511971D01*
X154971771Y-78620213D01*
X154988390Y-78632287D01*
X155079840Y-78678883D01*
X155081080Y-78679515D01*
X155131876Y-78727490D01*
X155148671Y-78795311D01*
X155126134Y-78861446D01*
X155081080Y-78900485D01*
X154988386Y-78947715D01*
X154822786Y-79068028D01*
X154678028Y-79212786D01*
X154557715Y-79378386D01*
X154464781Y-79560776D01*
X154401522Y-79755465D01*
X154369500Y-79957648D01*
X154369500Y-80162351D01*
X154401522Y-80364534D01*
X154464781Y-80559223D01*
X154513607Y-80655048D01*
X154540328Y-80707491D01*
X154557715Y-80741613D01*
X154678028Y-80907213D01*
X154822786Y-81051971D01*
X154971771Y-81160213D01*
X154988390Y-81172287D01*
X155079840Y-81218883D01*
X155081080Y-81219515D01*
X155131876Y-81267490D01*
X155148671Y-81335311D01*
X155126134Y-81401446D01*
X155081080Y-81440485D01*
X154988386Y-81487715D01*
X154822786Y-81608028D01*
X154678028Y-81752786D01*
X154557715Y-81918386D01*
X154464781Y-82100776D01*
X154401522Y-82295465D01*
X154369500Y-82497648D01*
X154369500Y-82702351D01*
X154401522Y-82904534D01*
X154464781Y-83099223D01*
X154513607Y-83195048D01*
X154540328Y-83247491D01*
X154557715Y-83281613D01*
X154678028Y-83447213D01*
X154822786Y-83591971D01*
X154971771Y-83700213D01*
X154988390Y-83712287D01*
X155079840Y-83758883D01*
X155081080Y-83759515D01*
X155131876Y-83807490D01*
X155148671Y-83875311D01*
X155126134Y-83941446D01*
X155081080Y-83980485D01*
X154988386Y-84027715D01*
X154822786Y-84148028D01*
X154678028Y-84292786D01*
X154557715Y-84458386D01*
X154464781Y-84640776D01*
X154401522Y-84835465D01*
X154369500Y-85037648D01*
X154369500Y-85242351D01*
X154401522Y-85444534D01*
X154464781Y-85639223D01*
X154557715Y-85821613D01*
X154678028Y-85987213D01*
X154822786Y-86131971D01*
X154977749Y-86244556D01*
X154988390Y-86252287D01*
X155079840Y-86298883D01*
X155081080Y-86299515D01*
X155131876Y-86347490D01*
X155148671Y-86415311D01*
X155126134Y-86481446D01*
X155081080Y-86520485D01*
X154988386Y-86567715D01*
X154822786Y-86688028D01*
X154678028Y-86832786D01*
X154557715Y-86998386D01*
X154464781Y-87180776D01*
X154401522Y-87375465D01*
X154369500Y-87577648D01*
X154369500Y-87782351D01*
X154401522Y-87984534D01*
X154464781Y-88179223D01*
X154557715Y-88361613D01*
X154678028Y-88527213D01*
X154822786Y-88671971D01*
X154977749Y-88784556D01*
X154988390Y-88792287D01*
X155070598Y-88834174D01*
X155081080Y-88839515D01*
X155131876Y-88887490D01*
X155148671Y-88955311D01*
X155126134Y-89021446D01*
X155081080Y-89060485D01*
X154988386Y-89107715D01*
X154822786Y-89228028D01*
X154678028Y-89372786D01*
X154557715Y-89538386D01*
X154464781Y-89720776D01*
X154401522Y-89915465D01*
X154369500Y-90117648D01*
X154369500Y-90322351D01*
X154401522Y-90524534D01*
X154464781Y-90719223D01*
X154557715Y-90901613D01*
X154678028Y-91067213D01*
X154822786Y-91211971D01*
X154977749Y-91324556D01*
X154988390Y-91332287D01*
X155079840Y-91378883D01*
X155081080Y-91379515D01*
X155131876Y-91427490D01*
X155148671Y-91495311D01*
X155126134Y-91561446D01*
X155081080Y-91600485D01*
X154988386Y-91647715D01*
X154822786Y-91768028D01*
X154678028Y-91912786D01*
X154557715Y-92078386D01*
X154464781Y-92260776D01*
X154401522Y-92455465D01*
X154369500Y-92657648D01*
X154369500Y-92862351D01*
X154401522Y-93064534D01*
X154464781Y-93259223D01*
X154557715Y-93441613D01*
X154678028Y-93607213D01*
X154822786Y-93751971D01*
X154974804Y-93862416D01*
X154988390Y-93872287D01*
X155079840Y-93918883D01*
X155081080Y-93919515D01*
X155131876Y-93967490D01*
X155148671Y-94035311D01*
X155126134Y-94101446D01*
X155081080Y-94140485D01*
X154988386Y-94187715D01*
X154822786Y-94308028D01*
X154678028Y-94452786D01*
X154557715Y-94618386D01*
X154464781Y-94800776D01*
X154401522Y-94995465D01*
X154369500Y-95197648D01*
X154369500Y-95402351D01*
X154401522Y-95604534D01*
X154464781Y-95799223D01*
X154528691Y-95924653D01*
X154555984Y-95978217D01*
X154557715Y-95981613D01*
X154678028Y-96147213D01*
X154822786Y-96291971D01*
X154977749Y-96404556D01*
X154988390Y-96412287D01*
X155079840Y-96458883D01*
X155081080Y-96459515D01*
X155131876Y-96507490D01*
X155148671Y-96575311D01*
X155126134Y-96641446D01*
X155081080Y-96680485D01*
X154988386Y-96727715D01*
X154822786Y-96848028D01*
X154678028Y-96992786D01*
X154557715Y-97158386D01*
X154464781Y-97340776D01*
X154401522Y-97535465D01*
X154369500Y-97737648D01*
X154369500Y-97942351D01*
X154401522Y-98144534D01*
X154464781Y-98339223D01*
X154557715Y-98521613D01*
X154678028Y-98687213D01*
X154822786Y-98831971D01*
X154977749Y-98944556D01*
X154988390Y-98952287D01*
X155079840Y-98998883D01*
X155081080Y-98999515D01*
X155131876Y-99047490D01*
X155148671Y-99115311D01*
X155126134Y-99181446D01*
X155081080Y-99220485D01*
X154988386Y-99267715D01*
X154822786Y-99388028D01*
X154678028Y-99532786D01*
X154557715Y-99698386D01*
X154464781Y-99880776D01*
X154401522Y-100075465D01*
X154369500Y-100277648D01*
X154369500Y-100482351D01*
X154401522Y-100684534D01*
X154464781Y-100879223D01*
X154557715Y-101061613D01*
X154678028Y-101227213D01*
X154822786Y-101371971D01*
X154977735Y-101484546D01*
X154988390Y-101492287D01*
X155079840Y-101538883D01*
X155081080Y-101539515D01*
X155131876Y-101587490D01*
X155148671Y-101655311D01*
X155126134Y-101721446D01*
X155081080Y-101760485D01*
X154988386Y-101807715D01*
X154822786Y-101928028D01*
X154678028Y-102072786D01*
X154557715Y-102238386D01*
X154464781Y-102420776D01*
X154401522Y-102615465D01*
X154369500Y-102817648D01*
X154369500Y-103022351D01*
X154401522Y-103224534D01*
X154464781Y-103419223D01*
X154528691Y-103544653D01*
X154546280Y-103579172D01*
X154557715Y-103601613D01*
X154678028Y-103767213D01*
X154822786Y-103911971D01*
X154977749Y-104024556D01*
X154988390Y-104032287D01*
X155079840Y-104078883D01*
X155081080Y-104079515D01*
X155131876Y-104127490D01*
X155148671Y-104195311D01*
X155126134Y-104261446D01*
X155081080Y-104300485D01*
X154988386Y-104347715D01*
X154822786Y-104468028D01*
X154678028Y-104612786D01*
X154557715Y-104778386D01*
X154464781Y-104960776D01*
X154401522Y-105155465D01*
X154369500Y-105357648D01*
X154369500Y-105562351D01*
X154401522Y-105764534D01*
X154464781Y-105959223D01*
X154557715Y-106141613D01*
X154678028Y-106307213D01*
X154822786Y-106451971D01*
X154977749Y-106564556D01*
X154988390Y-106572287D01*
X155104607Y-106631503D01*
X155170776Y-106665218D01*
X155170778Y-106665218D01*
X155170781Y-106665220D01*
X155275137Y-106699127D01*
X155365465Y-106728477D01*
X155466557Y-106744488D01*
X155567648Y-106760500D01*
X155567649Y-106760500D01*
X155772351Y-106760500D01*
X155772352Y-106760500D01*
X155974534Y-106728477D01*
X156169219Y-106665220D01*
X156351610Y-106572287D01*
X156451400Y-106499786D01*
X156517213Y-106451971D01*
X156517215Y-106451968D01*
X156517219Y-106451966D01*
X156661966Y-106307219D01*
X156661968Y-106307215D01*
X156661971Y-106307213D01*
X156714732Y-106234590D01*
X156782287Y-106141610D01*
X156875220Y-105959219D01*
X156938477Y-105764534D01*
X156970500Y-105562352D01*
X156970500Y-105357648D01*
X156938477Y-105155466D01*
X156875220Y-104960781D01*
X156875218Y-104960778D01*
X156875218Y-104960776D01*
X156841503Y-104894607D01*
X156782287Y-104778390D01*
X156754550Y-104740213D01*
X156661971Y-104612786D01*
X156517213Y-104468028D01*
X156351614Y-104347715D01*
X156319902Y-104331557D01*
X156258917Y-104300483D01*
X156208123Y-104252511D01*
X156191328Y-104184690D01*
X156213865Y-104118555D01*
X156258917Y-104079516D01*
X156351610Y-104032287D01*
X156372770Y-104016913D01*
X156517213Y-103911971D01*
X156517215Y-103911968D01*
X156517219Y-103911966D01*
X156661966Y-103767219D01*
X156661968Y-103767215D01*
X156661971Y-103767213D01*
X156714732Y-103694590D01*
X156782287Y-103601610D01*
X156875220Y-103419219D01*
X156938477Y-103224534D01*
X156970500Y-103022352D01*
X156970500Y-102817648D01*
X156960585Y-102755048D01*
X156938477Y-102615465D01*
X156908920Y-102524500D01*
X156875220Y-102420781D01*
X156875217Y-102420776D01*
X156875216Y-102420771D01*
X156860141Y-102391185D01*
X156847244Y-102322516D01*
X156870184Y-102262174D01*
X156915046Y-102200208D01*
X161347258Y-96078126D01*
X161402512Y-96035371D01*
X161472115Y-96029274D01*
X161533965Y-96061776D01*
X161558180Y-96094551D01*
X161595375Y-96167550D01*
X161634728Y-96221716D01*
X162267037Y-95589408D01*
X162284075Y-95652993D01*
X162349901Y-95767007D01*
X162442993Y-95860099D01*
X162557007Y-95925925D01*
X162620590Y-95942962D01*
X161988282Y-96575269D01*
X161988282Y-96575270D01*
X162042452Y-96614626D01*
X162042451Y-96614626D01*
X162051495Y-96619234D01*
X162102292Y-96667208D01*
X162119087Y-96735029D01*
X162096550Y-96801164D01*
X162051499Y-96840202D01*
X162042182Y-96844949D01*
X161870213Y-96969890D01*
X161719890Y-97120213D01*
X161594951Y-97292179D01*
X161498444Y-97481585D01*
X161432753Y-97683760D01*
X161411789Y-97816125D01*
X161399500Y-97893713D01*
X161399500Y-98106287D01*
X161432754Y-98316243D01*
X161444430Y-98352179D01*
X161498444Y-98518414D01*
X161594951Y-98707820D01*
X161719890Y-98879786D01*
X161870213Y-99030109D01*
X162042182Y-99155050D01*
X162050946Y-99159516D01*
X162101742Y-99207491D01*
X162118536Y-99275312D01*
X162095998Y-99341447D01*
X162050946Y-99380484D01*
X162042182Y-99384949D01*
X161870213Y-99509890D01*
X161719890Y-99660213D01*
X161594951Y-99832179D01*
X161498444Y-100021585D01*
X161432753Y-100223760D01*
X161399500Y-100433713D01*
X161399500Y-100646286D01*
X161428638Y-100830260D01*
X161432754Y-100856243D01*
X161444430Y-100892179D01*
X161498444Y-101058414D01*
X161594951Y-101247820D01*
X161719890Y-101419786D01*
X161870213Y-101570109D01*
X162042182Y-101695050D01*
X162050946Y-101699516D01*
X162101742Y-101747491D01*
X162118536Y-101815312D01*
X162095998Y-101881447D01*
X162050946Y-101920484D01*
X162042182Y-101924949D01*
X161870213Y-102049890D01*
X161719890Y-102200213D01*
X161594951Y-102372179D01*
X161498444Y-102561585D01*
X161432753Y-102763760D01*
X161403177Y-102950500D01*
X161399500Y-102973713D01*
X161399500Y-103186287D01*
X161432754Y-103396243D01*
X161440219Y-103419219D01*
X161498444Y-103598414D01*
X161594951Y-103787820D01*
X161719890Y-103959786D01*
X161870213Y-104110109D01*
X162042182Y-104235050D01*
X162050946Y-104239516D01*
X162101742Y-104287491D01*
X162118536Y-104355312D01*
X162095998Y-104421447D01*
X162050946Y-104460484D01*
X162042182Y-104464949D01*
X161870213Y-104589890D01*
X161719890Y-104740213D01*
X161594951Y-104912179D01*
X161498444Y-105101585D01*
X161432753Y-105303760D01*
X161424218Y-105357648D01*
X161399500Y-105513713D01*
X161399500Y-105726287D01*
X161432754Y-105936243D01*
X161440219Y-105959219D01*
X161498444Y-106138414D01*
X161594951Y-106327820D01*
X161719890Y-106499786D01*
X161870213Y-106650109D01*
X162042179Y-106775048D01*
X162042181Y-106775049D01*
X162042184Y-106775051D01*
X162231588Y-106871557D01*
X162433757Y-106937246D01*
X162643713Y-106970500D01*
X162643714Y-106970500D01*
X162856286Y-106970500D01*
X162856287Y-106970500D01*
X163066243Y-106937246D01*
X163268412Y-106871557D01*
X163457816Y-106775051D01*
X163521920Y-106728477D01*
X163629786Y-106650109D01*
X163629788Y-106650106D01*
X163629792Y-106650104D01*
X163780104Y-106499792D01*
X163780106Y-106499788D01*
X163780109Y-106499786D01*
X163905048Y-106327820D01*
X163905047Y-106327820D01*
X163905051Y-106327816D01*
X164001557Y-106138412D01*
X164067246Y-105936243D01*
X164100500Y-105726287D01*
X164100500Y-105513713D01*
X164067246Y-105303757D01*
X164001557Y-105101588D01*
X163905051Y-104912184D01*
X163905049Y-104912181D01*
X163905048Y-104912179D01*
X163780109Y-104740213D01*
X163629786Y-104589890D01*
X163457820Y-104464951D01*
X163457115Y-104464591D01*
X163449054Y-104460485D01*
X163398259Y-104412512D01*
X163381463Y-104344692D01*
X163403999Y-104278556D01*
X163449054Y-104239515D01*
X163457816Y-104235051D01*
X163521920Y-104188477D01*
X163629786Y-104110109D01*
X163629788Y-104110106D01*
X163629792Y-104110104D01*
X163780104Y-103959792D01*
X163780106Y-103959788D01*
X163780109Y-103959786D01*
X163905048Y-103787820D01*
X163905047Y-103787820D01*
X163905051Y-103787816D01*
X164001557Y-103598412D01*
X164067246Y-103396243D01*
X164100500Y-103186287D01*
X164100500Y-102973713D01*
X164067246Y-102763757D01*
X164001557Y-102561588D01*
X163905051Y-102372184D01*
X163905049Y-102372181D01*
X163905048Y-102372179D01*
X163780109Y-102200213D01*
X163629786Y-102049890D01*
X163457820Y-101924951D01*
X163457115Y-101924591D01*
X163449054Y-101920485D01*
X163398259Y-101872512D01*
X163381463Y-101804692D01*
X163403999Y-101738556D01*
X163449054Y-101699515D01*
X163457816Y-101695051D01*
X163521920Y-101648477D01*
X163629786Y-101570109D01*
X163629788Y-101570106D01*
X163629792Y-101570104D01*
X163780104Y-101419792D01*
X163780106Y-101419788D01*
X163780109Y-101419786D01*
X163905048Y-101247820D01*
X163905047Y-101247820D01*
X163905051Y-101247816D01*
X164001557Y-101058412D01*
X164067246Y-100856243D01*
X164100500Y-100646287D01*
X164100500Y-100433713D01*
X164067246Y-100223757D01*
X164001557Y-100021588D01*
X163905051Y-99832184D01*
X163905049Y-99832181D01*
X163905048Y-99832179D01*
X163780109Y-99660213D01*
X163629786Y-99509890D01*
X163457820Y-99384951D01*
X163457115Y-99384591D01*
X163449054Y-99380485D01*
X163398259Y-99332512D01*
X163381463Y-99264692D01*
X163403999Y-99198556D01*
X163449054Y-99159515D01*
X163457816Y-99155051D01*
X163521920Y-99108477D01*
X163629786Y-99030109D01*
X163629788Y-99030106D01*
X163629792Y-99030104D01*
X163780104Y-98879792D01*
X163780106Y-98879788D01*
X163780109Y-98879786D01*
X163905048Y-98707820D01*
X163905047Y-98707820D01*
X163905051Y-98707816D01*
X164001557Y-98518412D01*
X164067246Y-98316243D01*
X164100500Y-98106287D01*
X164100500Y-97893713D01*
X164067246Y-97683757D01*
X164001557Y-97481588D01*
X163905051Y-97292184D01*
X163905049Y-97292181D01*
X163905048Y-97292179D01*
X163780109Y-97120213D01*
X163629786Y-96969890D01*
X163457817Y-96844949D01*
X163448504Y-96840204D01*
X163397707Y-96792230D01*
X163380912Y-96724409D01*
X163403449Y-96658274D01*
X163448507Y-96619232D01*
X163457555Y-96614622D01*
X163511716Y-96575270D01*
X163511717Y-96575270D01*
X162879408Y-95942962D01*
X162942993Y-95925925D01*
X163057007Y-95860099D01*
X163150099Y-95767007D01*
X163215925Y-95652993D01*
X163232962Y-95589408D01*
X163865270Y-96221717D01*
X163865270Y-96221716D01*
X163904622Y-96167554D01*
X164001095Y-95978217D01*
X164066757Y-95776130D01*
X164066757Y-95776127D01*
X164100000Y-95566246D01*
X164100000Y-95353753D01*
X164066757Y-95143872D01*
X164066757Y-95143869D01*
X164001095Y-94941782D01*
X163904624Y-94752449D01*
X163865270Y-94698282D01*
X163865269Y-94698282D01*
X163232962Y-95330590D01*
X163215925Y-95267007D01*
X163150099Y-95152993D01*
X163057007Y-95059901D01*
X162942993Y-94994075D01*
X162879408Y-94977037D01*
X163549627Y-94306818D01*
X163610950Y-94273333D01*
X163637308Y-94270499D01*
X163647871Y-94270499D01*
X163647872Y-94270499D01*
X163707483Y-94264091D01*
X163842331Y-94213796D01*
X163957546Y-94127546D01*
X164043796Y-94012331D01*
X164094091Y-93877483D01*
X164100500Y-93817873D01*
X164100499Y-92022128D01*
X164094209Y-91963611D01*
X164094091Y-91962516D01*
X164043797Y-91827671D01*
X164043793Y-91827664D01*
X163957547Y-91712455D01*
X163957544Y-91712452D01*
X163842335Y-91626206D01*
X163842328Y-91626202D01*
X163707482Y-91575908D01*
X163707483Y-91575908D01*
X163647883Y-91569501D01*
X163647881Y-91569500D01*
X163647873Y-91569500D01*
X163647864Y-91569500D01*
X161852129Y-91569500D01*
X161852123Y-91569501D01*
X161792516Y-91575908D01*
X161657671Y-91626202D01*
X161657664Y-91626206D01*
X161542455Y-91712452D01*
X161542452Y-91712455D01*
X161456206Y-91827664D01*
X161456202Y-91827671D01*
X161405908Y-91962517D01*
X161399642Y-92020806D01*
X161399501Y-92022123D01*
X161399500Y-92022135D01*
X161399500Y-93817870D01*
X161399501Y-93817876D01*
X161406738Y-93885196D01*
X161405123Y-93885369D01*
X161401868Y-93946007D01*
X161385376Y-93977460D01*
X157091324Y-99908705D01*
X157036066Y-99951464D01*
X156966463Y-99957561D01*
X156904613Y-99925059D01*
X156877457Y-99885108D01*
X156877432Y-99885122D01*
X156877329Y-99884919D01*
X156876319Y-99883434D01*
X156875221Y-99880782D01*
X156817661Y-99767816D01*
X156782287Y-99698390D01*
X156754550Y-99660213D01*
X156661971Y-99532786D01*
X156517213Y-99388028D01*
X156351614Y-99267715D01*
X156319902Y-99251557D01*
X156258917Y-99220483D01*
X156208123Y-99172511D01*
X156191328Y-99104690D01*
X156213865Y-99038555D01*
X156258917Y-98999516D01*
X156351610Y-98952287D01*
X156451400Y-98879786D01*
X156517213Y-98831971D01*
X156517215Y-98831968D01*
X156517219Y-98831966D01*
X156661966Y-98687219D01*
X156661968Y-98687215D01*
X156661971Y-98687213D01*
X156767774Y-98541585D01*
X156782287Y-98521610D01*
X156875220Y-98339219D01*
X156938477Y-98144534D01*
X156970500Y-97942352D01*
X156970500Y-97737648D01*
X156940796Y-97550109D01*
X156938477Y-97535465D01*
X156875218Y-97340776D01*
X156817661Y-97227816D01*
X156782287Y-97158390D01*
X156754550Y-97120213D01*
X156661971Y-96992786D01*
X156517213Y-96848028D01*
X156351614Y-96727715D01*
X156338735Y-96721153D01*
X156258917Y-96680483D01*
X156208123Y-96632511D01*
X156191328Y-96564690D01*
X156213865Y-96498555D01*
X156258917Y-96459516D01*
X156351610Y-96412287D01*
X156372770Y-96396913D01*
X156517213Y-96291971D01*
X156517215Y-96291968D01*
X156517219Y-96291966D01*
X156661966Y-96147219D01*
X156661968Y-96147215D01*
X156661971Y-96147213D01*
X156724043Y-96061776D01*
X156782287Y-95981610D01*
X156875220Y-95799219D01*
X156938477Y-95604534D01*
X156970500Y-95402352D01*
X156970500Y-95197648D01*
X156940796Y-95010109D01*
X156938477Y-94995465D01*
X156875218Y-94800776D01*
X156817661Y-94687816D01*
X156782287Y-94618390D01*
X156774556Y-94607749D01*
X156661971Y-94452786D01*
X156517213Y-94308028D01*
X156351614Y-94187715D01*
X156345006Y-94184348D01*
X156258917Y-94140483D01*
X156208123Y-94092511D01*
X156191328Y-94024690D01*
X156213865Y-93958555D01*
X156258917Y-93919516D01*
X156351610Y-93872287D01*
X156372770Y-93856913D01*
X156517213Y-93751971D01*
X156517215Y-93751968D01*
X156517219Y-93751966D01*
X156661966Y-93607219D01*
X156661968Y-93607215D01*
X156661971Y-93607213D01*
X156767774Y-93461585D01*
X156782287Y-93441610D01*
X156875220Y-93259219D01*
X156938477Y-93064534D01*
X156970500Y-92862352D01*
X156970500Y-92657648D01*
X156940796Y-92470109D01*
X156938477Y-92455465D01*
X156875218Y-92260776D01*
X156810176Y-92133126D01*
X156782287Y-92078390D01*
X156741416Y-92022135D01*
X156661971Y-91912786D01*
X156517213Y-91768028D01*
X156351614Y-91647715D01*
X156309392Y-91626202D01*
X156258917Y-91600483D01*
X156208123Y-91552511D01*
X156191328Y-91484690D01*
X156213865Y-91418555D01*
X156258917Y-91379516D01*
X156351610Y-91332287D01*
X156372770Y-91316913D01*
X156517213Y-91211971D01*
X156517215Y-91211968D01*
X156517219Y-91211966D01*
X156661966Y-91067219D01*
X156661968Y-91067215D01*
X156661971Y-91067213D01*
X156767774Y-90921585D01*
X156782287Y-90901610D01*
X156875220Y-90719219D01*
X156938477Y-90524534D01*
X156970500Y-90322352D01*
X156970500Y-90117648D01*
X156938477Y-89915466D01*
X156881850Y-89741188D01*
X156879856Y-89671349D01*
X156915936Y-89611516D01*
X156975588Y-89581255D01*
X157033497Y-89569737D01*
X157179179Y-89509394D01*
X157310289Y-89421789D01*
X157327304Y-89404772D01*
X157333822Y-89400385D01*
X157336530Y-89396429D01*
X157349797Y-89389632D01*
X157366760Y-89378214D01*
X157374631Y-89374890D01*
X157431785Y-89359577D01*
X157481904Y-89330639D01*
X157568716Y-89280520D01*
X157680520Y-89168716D01*
X157730639Y-89081904D01*
X157759577Y-89031785D01*
X157800501Y-88879057D01*
X157800501Y-88720943D01*
X157759577Y-88568215D01*
X157730639Y-88518095D01*
X157680520Y-88431284D01*
X157568716Y-88319480D01*
X157568715Y-88319479D01*
X157564385Y-88315149D01*
X157564374Y-88315139D01*
X157250848Y-88001613D01*
X157248447Y-87997217D01*
X157244253Y-87994480D01*
X157231868Y-87966854D01*
X157217363Y-87940290D01*
X157217720Y-87935295D01*
X157215671Y-87930724D01*
X157220187Y-87900791D01*
X157222347Y-87870598D01*
X157225348Y-87866588D01*
X157226096Y-87861637D01*
X157246078Y-87838897D01*
X157264219Y-87814665D01*
X157269810Y-87811890D01*
X157272217Y-87809152D01*
X157304423Y-87794715D01*
X157310454Y-87792989D01*
X157359408Y-87778985D01*
X157361232Y-87778480D01*
X157431784Y-87759577D01*
X157431789Y-87759574D01*
X157435310Y-87758116D01*
X157435582Y-87758021D01*
X157435639Y-87757997D01*
X157437649Y-87757125D01*
X157441155Y-87755602D01*
X157441164Y-87755600D01*
X157503743Y-87718051D01*
X157505508Y-87717012D01*
X157568716Y-87680520D01*
X157568726Y-87680509D01*
X157571750Y-87678190D01*
X157571786Y-87678162D01*
X157573546Y-87676811D01*
X157573753Y-87676627D01*
X157576741Y-87674252D01*
X157576746Y-87674250D01*
X157627511Y-87621746D01*
X157628798Y-87620436D01*
X157680520Y-87568716D01*
X157680523Y-87568709D01*
X157682842Y-87565688D01*
X157682853Y-87565674D01*
X157684219Y-87563892D01*
X157684367Y-87563668D01*
X157686652Y-87560584D01*
X157688974Y-87556401D01*
X157722115Y-87496700D01*
X157723011Y-87495117D01*
X157759577Y-87431784D01*
X157759580Y-87431772D01*
X157761037Y-87428256D01*
X157761903Y-87426163D01*
X157761990Y-87425900D01*
X157763393Y-87422343D01*
X157763396Y-87422339D01*
X157781106Y-87351497D01*
X157781578Y-87349673D01*
X157800500Y-87279057D01*
X157800500Y-87279052D01*
X157801003Y-87275235D01*
X157803644Y-87261346D01*
X157823785Y-87180781D01*
X160486111Y-76531476D01*
X160521467Y-76471215D01*
X160567193Y-76443917D01*
X161400462Y-76166160D01*
X161470283Y-76163636D01*
X161530388Y-76199261D01*
X161561691Y-76261726D01*
X161554254Y-76331199D01*
X161550156Y-76340092D01*
X161498445Y-76441582D01*
X161432753Y-76643760D01*
X161399500Y-76853713D01*
X161399500Y-77066286D01*
X161423127Y-77215465D01*
X161432754Y-77276243D01*
X161478699Y-77417648D01*
X161498444Y-77478414D01*
X161594951Y-77667820D01*
X161719890Y-77839786D01*
X161870213Y-77990109D01*
X162042182Y-78115050D01*
X162050946Y-78119516D01*
X162101742Y-78167491D01*
X162118536Y-78235312D01*
X162095998Y-78301447D01*
X162050946Y-78340484D01*
X162042182Y-78344949D01*
X161870213Y-78469890D01*
X161719890Y-78620213D01*
X161594951Y-78792179D01*
X161498444Y-78981585D01*
X161432753Y-79183760D01*
X161399500Y-79393713D01*
X161399500Y-79606286D01*
X161423127Y-79755465D01*
X161432754Y-79816243D01*
X161478699Y-79957648D01*
X161498444Y-80018414D01*
X161594951Y-80207820D01*
X161719890Y-80379786D01*
X161870213Y-80530109D01*
X162042182Y-80655050D01*
X162050946Y-80659516D01*
X162101742Y-80707491D01*
X162118536Y-80775312D01*
X162095998Y-80841447D01*
X162050946Y-80880484D01*
X162042182Y-80884949D01*
X161870213Y-81009890D01*
X161719890Y-81160213D01*
X161594951Y-81332179D01*
X161498444Y-81521585D01*
X161432753Y-81723760D01*
X161399500Y-81933713D01*
X161399500Y-82146286D01*
X161423127Y-82295465D01*
X161432754Y-82356243D01*
X161478699Y-82497648D01*
X161498444Y-82558414D01*
X161594951Y-82747820D01*
X161719890Y-82919786D01*
X161870213Y-83070109D01*
X162042182Y-83195050D01*
X162050946Y-83199516D01*
X162101742Y-83247491D01*
X162118536Y-83315312D01*
X162095998Y-83381447D01*
X162050946Y-83420484D01*
X162042182Y-83424949D01*
X161870213Y-83549890D01*
X161719890Y-83700213D01*
X161594951Y-83872179D01*
X161498444Y-84061585D01*
X161432753Y-84263760D01*
X161399500Y-84473713D01*
X161399500Y-84686286D01*
X161423127Y-84835465D01*
X161432754Y-84896243D01*
X161478699Y-85037648D01*
X161498444Y-85098414D01*
X161594951Y-85287820D01*
X161719890Y-85459786D01*
X161870213Y-85610109D01*
X162042179Y-85735048D01*
X162042181Y-85735049D01*
X162042184Y-85735051D01*
X162231588Y-85831557D01*
X162433757Y-85897246D01*
X162643713Y-85930500D01*
X162643714Y-85930500D01*
X162856286Y-85930500D01*
X162856287Y-85930500D01*
X163066243Y-85897246D01*
X163268412Y-85831557D01*
X163457816Y-85735051D01*
X163589713Y-85639223D01*
X163629786Y-85610109D01*
X163629788Y-85610106D01*
X163629792Y-85610104D01*
X163780104Y-85459792D01*
X163780106Y-85459788D01*
X163780109Y-85459786D01*
X163905048Y-85287820D01*
X163905047Y-85287820D01*
X163905051Y-85287816D01*
X164001557Y-85098412D01*
X164067246Y-84896243D01*
X164100500Y-84686287D01*
X164100500Y-84473713D01*
X164067246Y-84263757D01*
X164001557Y-84061588D01*
X163905051Y-83872184D01*
X163905049Y-83872181D01*
X163905048Y-83872179D01*
X163780109Y-83700213D01*
X163629786Y-83549890D01*
X163457820Y-83424951D01*
X163457115Y-83424591D01*
X163449054Y-83420485D01*
X163398259Y-83372512D01*
X163381463Y-83304692D01*
X163403999Y-83238556D01*
X163449054Y-83199515D01*
X163457816Y-83195051D01*
X163589713Y-83099223D01*
X163629786Y-83070109D01*
X163629788Y-83070106D01*
X163629792Y-83070104D01*
X163780104Y-82919792D01*
X163780106Y-82919788D01*
X163780109Y-82919786D01*
X163905048Y-82747820D01*
X163905047Y-82747820D01*
X163905051Y-82747816D01*
X164001557Y-82558412D01*
X164067246Y-82356243D01*
X164100500Y-82146287D01*
X164100500Y-81933713D01*
X164067246Y-81723757D01*
X164001557Y-81521588D01*
X163905051Y-81332184D01*
X163905049Y-81332181D01*
X163905048Y-81332179D01*
X163780109Y-81160213D01*
X163629786Y-81009890D01*
X163457820Y-80884951D01*
X163457115Y-80884591D01*
X163449054Y-80880485D01*
X163398259Y-80832512D01*
X163381463Y-80764692D01*
X163403999Y-80698556D01*
X163449054Y-80659515D01*
X163457816Y-80655051D01*
X163589713Y-80559223D01*
X163629786Y-80530109D01*
X163629788Y-80530106D01*
X163629792Y-80530104D01*
X163780104Y-80379792D01*
X163780106Y-80379788D01*
X163780109Y-80379786D01*
X163905048Y-80207820D01*
X163905047Y-80207820D01*
X163905051Y-80207816D01*
X164001557Y-80018412D01*
X164067246Y-79816243D01*
X164100500Y-79606287D01*
X164100500Y-79393713D01*
X164067246Y-79183757D01*
X164001557Y-78981588D01*
X163905051Y-78792184D01*
X163905049Y-78792181D01*
X163905048Y-78792179D01*
X163780109Y-78620213D01*
X163629786Y-78469890D01*
X163457820Y-78344951D01*
X163457115Y-78344591D01*
X163449054Y-78340485D01*
X163398259Y-78292512D01*
X163381463Y-78224692D01*
X163403999Y-78158556D01*
X163449054Y-78119515D01*
X163457816Y-78115051D01*
X163479789Y-78099086D01*
X163629786Y-77990109D01*
X163629788Y-77990106D01*
X163629792Y-77990104D01*
X163780104Y-77839792D01*
X163780106Y-77839788D01*
X163780109Y-77839786D01*
X163905048Y-77667820D01*
X163905047Y-77667820D01*
X163905051Y-77667816D01*
X164001557Y-77478412D01*
X164067246Y-77276243D01*
X164100500Y-77066287D01*
X164100500Y-76853713D01*
X164067246Y-76643757D01*
X164001557Y-76441588D01*
X163905051Y-76252184D01*
X163905049Y-76252181D01*
X163905048Y-76252179D01*
X163780109Y-76080213D01*
X163629786Y-75929890D01*
X163457820Y-75804951D01*
X163452340Y-75802159D01*
X163449054Y-75800485D01*
X163398259Y-75752512D01*
X163381463Y-75684692D01*
X163403999Y-75618556D01*
X163449054Y-75579515D01*
X163457816Y-75575051D01*
X163479789Y-75559086D01*
X163629786Y-75450109D01*
X163629788Y-75450106D01*
X163629792Y-75450104D01*
X163780104Y-75299792D01*
X163780106Y-75299788D01*
X163780109Y-75299786D01*
X163905048Y-75127820D01*
X163905047Y-75127820D01*
X163905051Y-75127816D01*
X164001557Y-74938412D01*
X164067246Y-74736243D01*
X164100500Y-74526287D01*
X164100500Y-74313713D01*
X164067246Y-74103757D01*
X164001557Y-73901588D01*
X163905051Y-73712184D01*
X163905049Y-73712181D01*
X163905048Y-73712179D01*
X163780109Y-73540213D01*
X163629786Y-73389890D01*
X163457820Y-73264951D01*
X163457115Y-73264591D01*
X163449054Y-73260485D01*
X163398259Y-73212512D01*
X163381463Y-73144692D01*
X163403999Y-73078556D01*
X163449054Y-73039515D01*
X163457816Y-73035051D01*
X163479789Y-73019086D01*
X163629786Y-72910109D01*
X163629788Y-72910106D01*
X163629792Y-72910104D01*
X163780104Y-72759792D01*
X163780106Y-72759788D01*
X163780109Y-72759786D01*
X163905048Y-72587820D01*
X163905047Y-72587820D01*
X163905051Y-72587816D01*
X164001557Y-72398412D01*
X164067246Y-72196243D01*
X164100500Y-71986287D01*
X164100500Y-71773713D01*
X164067246Y-71563757D01*
X164001557Y-71361588D01*
X163905051Y-71172184D01*
X163905049Y-71172181D01*
X163905048Y-71172179D01*
X163780109Y-71000213D01*
X163629786Y-70849890D01*
X163457817Y-70724949D01*
X163448504Y-70720204D01*
X163397707Y-70672230D01*
X163380912Y-70604409D01*
X163403449Y-70538274D01*
X163448507Y-70499232D01*
X163457555Y-70494622D01*
X163511716Y-70455270D01*
X163511717Y-70455270D01*
X162879408Y-69822962D01*
X162942993Y-69805925D01*
X163057007Y-69740099D01*
X163150099Y-69647007D01*
X163215925Y-69532993D01*
X163232962Y-69469408D01*
X163865270Y-70101717D01*
X163865270Y-70101716D01*
X163904622Y-70047554D01*
X164001095Y-69858217D01*
X164066757Y-69656130D01*
X164066757Y-69656127D01*
X164100000Y-69446246D01*
X164100000Y-69233753D01*
X164066757Y-69023872D01*
X164066757Y-69023869D01*
X164001095Y-68821782D01*
X163904624Y-68632449D01*
X163865270Y-68578282D01*
X163865269Y-68578282D01*
X163232962Y-69210590D01*
X163215925Y-69147007D01*
X163150099Y-69032993D01*
X163057007Y-68939901D01*
X162942993Y-68874075D01*
X162879409Y-68857037D01*
X163549627Y-68186818D01*
X163610950Y-68153333D01*
X163637307Y-68150499D01*
X163647872Y-68150499D01*
X163707483Y-68144091D01*
X163842331Y-68093796D01*
X163957546Y-68007546D01*
X164043796Y-67892331D01*
X164094091Y-67757483D01*
X164100500Y-67697873D01*
X164100499Y-65902128D01*
X164094091Y-65842517D01*
X164043796Y-65707669D01*
X164043795Y-65707668D01*
X164043793Y-65707664D01*
X163957547Y-65592455D01*
X163957544Y-65592452D01*
X163842335Y-65506206D01*
X163842328Y-65506202D01*
X163707482Y-65455908D01*
X163707483Y-65455908D01*
X163647883Y-65449501D01*
X163647881Y-65449500D01*
X163647873Y-65449500D01*
X163647864Y-65449500D01*
X161852129Y-65449500D01*
X161852123Y-65449501D01*
X161792516Y-65455908D01*
X161657671Y-65506202D01*
X161657664Y-65506206D01*
X161542455Y-65592452D01*
X161542452Y-65592455D01*
X161456206Y-65707664D01*
X161456202Y-65707671D01*
X161405908Y-65842517D01*
X161399501Y-65902116D01*
X161399501Y-65902123D01*
X161399500Y-65902135D01*
X161399500Y-67697870D01*
X161399501Y-67697876D01*
X161405908Y-67757483D01*
X161456202Y-67892328D01*
X161456206Y-67892335D01*
X161542452Y-68007544D01*
X161542455Y-68007547D01*
X161657664Y-68093793D01*
X161657671Y-68093797D01*
X161702618Y-68110561D01*
X161792517Y-68144091D01*
X161852127Y-68150500D01*
X161862685Y-68150499D01*
X161929723Y-68170179D01*
X161950372Y-68186818D01*
X162620591Y-68857037D01*
X162557007Y-68874075D01*
X162442993Y-68939901D01*
X162349901Y-69032993D01*
X162284075Y-69147007D01*
X162267037Y-69210591D01*
X161634728Y-68578282D01*
X161634727Y-68578282D01*
X161595380Y-68632439D01*
X161498904Y-68821782D01*
X161433242Y-69023869D01*
X161433242Y-69023872D01*
X161400000Y-69233753D01*
X161400000Y-69446246D01*
X161433242Y-69656127D01*
X161433242Y-69656130D01*
X161498904Y-69858217D01*
X161595375Y-70047550D01*
X161634728Y-70101716D01*
X162267037Y-69469408D01*
X162284075Y-69532993D01*
X162349901Y-69647007D01*
X162442993Y-69740099D01*
X162557007Y-69805925D01*
X162620590Y-69822962D01*
X161988282Y-70455269D01*
X161988282Y-70455270D01*
X162042452Y-70494626D01*
X162042451Y-70494626D01*
X162051495Y-70499234D01*
X162102292Y-70547208D01*
X162119087Y-70615029D01*
X162096550Y-70681164D01*
X162051499Y-70720202D01*
X162042182Y-70724949D01*
X161870213Y-70849890D01*
X161719890Y-71000213D01*
X161594951Y-71172179D01*
X161498444Y-71361585D01*
X161432753Y-71563760D01*
X161399500Y-71773713D01*
X161399500Y-71986286D01*
X161423127Y-72135465D01*
X161432754Y-72196243D01*
X161478699Y-72337648D01*
X161498444Y-72398414D01*
X161594951Y-72587820D01*
X161719890Y-72759786D01*
X161870213Y-72910109D01*
X162042182Y-73035050D01*
X162050946Y-73039516D01*
X162101742Y-73087491D01*
X162118536Y-73155312D01*
X162095998Y-73221447D01*
X162050946Y-73260484D01*
X162042182Y-73264949D01*
X161870213Y-73389890D01*
X161719890Y-73540213D01*
X161594951Y-73712179D01*
X161498444Y-73901585D01*
X161432753Y-74103760D01*
X161399500Y-74313713D01*
X161399500Y-74526286D01*
X161432753Y-74736243D01*
X161439635Y-74757421D01*
X161441630Y-74827262D01*
X161405550Y-74887095D01*
X161360916Y-74913377D01*
X159824953Y-75425365D01*
X159824952Y-75425364D01*
X159822372Y-75426223D01*
X159758836Y-75444400D01*
X159747565Y-75451161D01*
X159735105Y-75455315D01*
X159682195Y-75490249D01*
X159677672Y-75493097D01*
X159623254Y-75525748D01*
X159623251Y-75525750D01*
X159614113Y-75535200D01*
X159603157Y-75542435D01*
X159559324Y-75591865D01*
X159557456Y-75593797D01*
X159557454Y-75593800D01*
X159513346Y-75639420D01*
X159511945Y-75641310D01*
X159499545Y-75658823D01*
X159498251Y-75660737D01*
X159469872Y-75717492D01*
X159469873Y-75717493D01*
X159468678Y-75719883D01*
X159436604Y-75777661D01*
X159433417Y-75790401D01*
X159427542Y-75802153D01*
X159427540Y-75802159D01*
X159414821Y-75864312D01*
X159413637Y-75869525D01*
X157175297Y-84822885D01*
X157139940Y-84883149D01*
X157077616Y-84914731D01*
X157008111Y-84907604D01*
X156953492Y-84864031D01*
X156937068Y-84831129D01*
X156927965Y-84803115D01*
X156875220Y-84640781D01*
X156782287Y-84458390D01*
X156774556Y-84447749D01*
X156661971Y-84292786D01*
X156517213Y-84148028D01*
X156351614Y-84027715D01*
X156345006Y-84024348D01*
X156258917Y-83980483D01*
X156208123Y-83932511D01*
X156191328Y-83864690D01*
X156213865Y-83798555D01*
X156258917Y-83759516D01*
X156351610Y-83712287D01*
X156372770Y-83696913D01*
X156517213Y-83591971D01*
X156517215Y-83591968D01*
X156517219Y-83591966D01*
X156661966Y-83447219D01*
X156661968Y-83447215D01*
X156661971Y-83447213D01*
X156757801Y-83315312D01*
X156782287Y-83281610D01*
X156875220Y-83099219D01*
X156938477Y-82904534D01*
X156970500Y-82702352D01*
X156970500Y-82497648D01*
X156938477Y-82295466D01*
X156875220Y-82100781D01*
X156875218Y-82100778D01*
X156875218Y-82100776D01*
X156790094Y-81933713D01*
X156782287Y-81918390D01*
X156774556Y-81907749D01*
X156661971Y-81752786D01*
X156517213Y-81608028D01*
X156351614Y-81487715D01*
X156345006Y-81484348D01*
X156258917Y-81440483D01*
X156208123Y-81392511D01*
X156191328Y-81324690D01*
X156213865Y-81258555D01*
X156258917Y-81219516D01*
X156351610Y-81172287D01*
X156372770Y-81156913D01*
X156517213Y-81051971D01*
X156517215Y-81051968D01*
X156517219Y-81051966D01*
X156661966Y-80907219D01*
X156661968Y-80907215D01*
X156661971Y-80907213D01*
X156757801Y-80775312D01*
X156782287Y-80741610D01*
X156875220Y-80559219D01*
X156938477Y-80364534D01*
X156970500Y-80162352D01*
X156970500Y-79957648D01*
X156938477Y-79755466D01*
X156875220Y-79560781D01*
X156875218Y-79560778D01*
X156875218Y-79560776D01*
X156790094Y-79393713D01*
X156782287Y-79378390D01*
X156774556Y-79367749D01*
X156661971Y-79212786D01*
X156517213Y-79068028D01*
X156351614Y-78947715D01*
X156345006Y-78944348D01*
X156258917Y-78900483D01*
X156208123Y-78852511D01*
X156191328Y-78784690D01*
X156213865Y-78718555D01*
X156258917Y-78679516D01*
X156351610Y-78632287D01*
X156372770Y-78616913D01*
X156517213Y-78511971D01*
X156517215Y-78511968D01*
X156517219Y-78511966D01*
X156661966Y-78367219D01*
X156661968Y-78367215D01*
X156661971Y-78367213D01*
X156757801Y-78235312D01*
X156782287Y-78201610D01*
X156875220Y-78019219D01*
X156938477Y-77824534D01*
X156970500Y-77622352D01*
X156970500Y-77417648D01*
X156948103Y-77276239D01*
X156938477Y-77215465D01*
X156875218Y-77020776D01*
X156782419Y-76838650D01*
X156782287Y-76838390D01*
X156774556Y-76827749D01*
X156661971Y-76672786D01*
X156517213Y-76528028D01*
X156351614Y-76407715D01*
X156345006Y-76404348D01*
X156258917Y-76360483D01*
X156208123Y-76312511D01*
X156191328Y-76244690D01*
X156213865Y-76178555D01*
X156258917Y-76139516D01*
X156351610Y-76092287D01*
X156372770Y-76076913D01*
X156517213Y-75971971D01*
X156517215Y-75971968D01*
X156517219Y-75971966D01*
X156661966Y-75827219D01*
X156661968Y-75827215D01*
X156661971Y-75827213D01*
X156716243Y-75752512D01*
X156782287Y-75661610D01*
X156875220Y-75479219D01*
X156938477Y-75284534D01*
X156970500Y-75082352D01*
X156970500Y-74877648D01*
X156938477Y-74675466D01*
X156875220Y-74480781D01*
X156875218Y-74480778D01*
X156875218Y-74480776D01*
X156790094Y-74313713D01*
X156782287Y-74298390D01*
X156774556Y-74287749D01*
X156661971Y-74132786D01*
X156517213Y-73988028D01*
X156351611Y-73867713D01*
X156258369Y-73820203D01*
X156207574Y-73772229D01*
X156190779Y-73704407D01*
X156213317Y-73638273D01*
X156258371Y-73599234D01*
X156351347Y-73551861D01*
X156516894Y-73431582D01*
X156516895Y-73431582D01*
X156661582Y-73286895D01*
X156661582Y-73286894D01*
X156781859Y-73121349D01*
X156874755Y-72939029D01*
X156937990Y-72744413D01*
X156946609Y-72690000D01*
X156103012Y-72690000D01*
X156135925Y-72632993D01*
X156170000Y-72505826D01*
X156170000Y-72374174D01*
X156135925Y-72247007D01*
X156103012Y-72190000D01*
X156946609Y-72190000D01*
X156937990Y-72135586D01*
X156874755Y-71940970D01*
X156781859Y-71758650D01*
X156661582Y-71593105D01*
X156661582Y-71593104D01*
X156516895Y-71448417D01*
X156351349Y-71328140D01*
X156258370Y-71280765D01*
X156207574Y-71232790D01*
X156190779Y-71164969D01*
X156213316Y-71098835D01*
X156258370Y-71059795D01*
X156262788Y-71057544D01*
X156351610Y-71012287D01*
X156372770Y-70996913D01*
X156517213Y-70891971D01*
X156517215Y-70891968D01*
X156517219Y-70891966D01*
X156661966Y-70747219D01*
X156661968Y-70747215D01*
X156661971Y-70747213D01*
X156748261Y-70628443D01*
X156782287Y-70581610D01*
X156875220Y-70399219D01*
X156938477Y-70204534D01*
X156970500Y-70002352D01*
X156970500Y-69797648D01*
X156948085Y-69656127D01*
X156938477Y-69595465D01*
X156875218Y-69400776D01*
X156816316Y-69285176D01*
X156810710Y-69274174D01*
X156782287Y-69218390D01*
X156782285Y-69218387D01*
X156782284Y-69218385D01*
X156661971Y-69052786D01*
X156517213Y-68908028D01*
X156351613Y-68787715D01*
X156351612Y-68787714D01*
X156351610Y-68787713D01*
X156294653Y-68758691D01*
X156169223Y-68694781D01*
X155974534Y-68631522D01*
X155799995Y-68603878D01*
X155772352Y-68599500D01*
X155567648Y-68599500D01*
X155543329Y-68603351D01*
X155365465Y-68631522D01*
X155170776Y-68694781D01*
X154988386Y-68787715D01*
X154822786Y-68908028D01*
X154678028Y-69052786D01*
X154557715Y-69218386D01*
X154464781Y-69400776D01*
X154401522Y-69595465D01*
X154369500Y-69797648D01*
X141730499Y-69797648D01*
X141730499Y-69052128D01*
X141724091Y-68992517D01*
X141673796Y-68857669D01*
X141673795Y-68857668D01*
X141673793Y-68857664D01*
X141587547Y-68742455D01*
X141587544Y-68742452D01*
X141472335Y-68656206D01*
X141472328Y-68656202D01*
X141337482Y-68605908D01*
X141337483Y-68605908D01*
X141277883Y-68599501D01*
X141277881Y-68599500D01*
X141277873Y-68599500D01*
X141277864Y-68599500D01*
X139582129Y-68599500D01*
X139582123Y-68599501D01*
X139522516Y-68605908D01*
X139387671Y-68656202D01*
X139387664Y-68656206D01*
X139272455Y-68742452D01*
X139272452Y-68742455D01*
X139186206Y-68857664D01*
X139186202Y-68857671D01*
X139135908Y-68992517D01*
X139131557Y-69032993D01*
X139129501Y-69052123D01*
X139129500Y-69052135D01*
X139129500Y-70747870D01*
X139129501Y-70747876D01*
X139135908Y-70807483D01*
X139186202Y-70942328D01*
X139186206Y-70942335D01*
X139272452Y-71057544D01*
X139272455Y-71057547D01*
X139387664Y-71143793D01*
X139387671Y-71143797D01*
X139432618Y-71160561D01*
X139522517Y-71194091D01*
X139559441Y-71198060D01*
X139623989Y-71224796D01*
X139663838Y-71282188D01*
X139666333Y-71352013D01*
X139630681Y-71412102D01*
X139619071Y-71421666D01*
X139582784Y-71448030D01*
X139438028Y-71592786D01*
X139317715Y-71758386D01*
X139224781Y-71940776D01*
X139161522Y-72135465D01*
X139129500Y-72337648D01*
X139129500Y-72542351D01*
X139161522Y-72744534D01*
X139224781Y-72939223D01*
X139273607Y-73035048D01*
X139300328Y-73087491D01*
X139317715Y-73121613D01*
X139438028Y-73287213D01*
X139582786Y-73431971D01*
X139731771Y-73540213D01*
X139748390Y-73552287D01*
X139839840Y-73598883D01*
X139841080Y-73599515D01*
X139891876Y-73647490D01*
X139908671Y-73715311D01*
X139886134Y-73781446D01*
X139841080Y-73820485D01*
X139748386Y-73867715D01*
X139582786Y-73988028D01*
X139438028Y-74132786D01*
X139317715Y-74298386D01*
X139224781Y-74480776D01*
X139161522Y-74675465D01*
X139129500Y-74877648D01*
X139129500Y-75082351D01*
X139161522Y-75284534D01*
X139224781Y-75479223D01*
X139256990Y-75542435D01*
X139317268Y-75660737D01*
X139317715Y-75661613D01*
X139438028Y-75827213D01*
X139582786Y-75971971D01*
X139731771Y-76080213D01*
X139748390Y-76092287D01*
X139820424Y-76128990D01*
X139841629Y-76139795D01*
X139892425Y-76187770D01*
X139909220Y-76255591D01*
X139886682Y-76321726D01*
X139841629Y-76360765D01*
X139748650Y-76408140D01*
X139583105Y-76528417D01*
X139583104Y-76528417D01*
X139438417Y-76673104D01*
X139438417Y-76673105D01*
X139318140Y-76838650D01*
X139225244Y-77020970D01*
X139162009Y-77215586D01*
X139153391Y-77270000D01*
X139996988Y-77270000D01*
X139964075Y-77327007D01*
X139930000Y-77454174D01*
X139930000Y-77585826D01*
X139964075Y-77712993D01*
X139996988Y-77770000D01*
X139153391Y-77770000D01*
X139162009Y-77824413D01*
X139225244Y-78019029D01*
X139318140Y-78201349D01*
X139438417Y-78366894D01*
X139438417Y-78366895D01*
X139583104Y-78511582D01*
X139748652Y-78631861D01*
X139841628Y-78679234D01*
X139892425Y-78727208D01*
X139909220Y-78795029D01*
X139886683Y-78861164D01*
X139841630Y-78900203D01*
X139748388Y-78947713D01*
X139582786Y-79068028D01*
X139438028Y-79212786D01*
X139317715Y-79378386D01*
X139224781Y-79560776D01*
X139161522Y-79755465D01*
X139129500Y-79957648D01*
X139129500Y-80162351D01*
X139161522Y-80364534D01*
X139224781Y-80559223D01*
X139273607Y-80655048D01*
X139300328Y-80707491D01*
X139317715Y-80741613D01*
X139438028Y-80907213D01*
X139582786Y-81051971D01*
X139731771Y-81160213D01*
X139748390Y-81172287D01*
X139839840Y-81218883D01*
X139841080Y-81219515D01*
X139891876Y-81267490D01*
X139908671Y-81335311D01*
X139886134Y-81401446D01*
X139841080Y-81440485D01*
X139748386Y-81487715D01*
X139582786Y-81608028D01*
X139438028Y-81752786D01*
X139317715Y-81918386D01*
X139224781Y-82100776D01*
X139161522Y-82295465D01*
X139129500Y-82497648D01*
X139129500Y-82702351D01*
X139161522Y-82904534D01*
X139224781Y-83099223D01*
X139273607Y-83195048D01*
X139300328Y-83247491D01*
X139317715Y-83281613D01*
X139438028Y-83447213D01*
X139582786Y-83591971D01*
X139731771Y-83700213D01*
X139748390Y-83712287D01*
X139839840Y-83758883D01*
X139841080Y-83759515D01*
X139891876Y-83807490D01*
X139908671Y-83875311D01*
X139886134Y-83941446D01*
X139841080Y-83980485D01*
X139748386Y-84027715D01*
X139582786Y-84148028D01*
X139438028Y-84292786D01*
X139317715Y-84458386D01*
X139224781Y-84640776D01*
X139161522Y-84835465D01*
X139129500Y-85037648D01*
X139129500Y-85242351D01*
X139161522Y-85444534D01*
X139224781Y-85639223D01*
X139317715Y-85821613D01*
X139438028Y-85987213D01*
X139582786Y-86131971D01*
X139737749Y-86244556D01*
X139748390Y-86252287D01*
X139839840Y-86298883D01*
X139841080Y-86299515D01*
X139891876Y-86347490D01*
X139908671Y-86415311D01*
X139886134Y-86481446D01*
X139841080Y-86520485D01*
X139748386Y-86567715D01*
X139582786Y-86688028D01*
X139438028Y-86832786D01*
X139317715Y-86998386D01*
X139224781Y-87180776D01*
X139161522Y-87375465D01*
X139129500Y-87577648D01*
X139129500Y-87782351D01*
X139161522Y-87984534D01*
X139224781Y-88179223D01*
X139317715Y-88361613D01*
X139438028Y-88527213D01*
X139582786Y-88671971D01*
X139737749Y-88784556D01*
X139748390Y-88792287D01*
X139830598Y-88834174D01*
X139841080Y-88839515D01*
X139891876Y-88887490D01*
X139908671Y-88955311D01*
X139886134Y-89021446D01*
X139841080Y-89060485D01*
X139748386Y-89107715D01*
X139582786Y-89228028D01*
X139438028Y-89372786D01*
X139317715Y-89538386D01*
X139224781Y-89720776D01*
X139161522Y-89915465D01*
X139129500Y-90117648D01*
X139129500Y-90322351D01*
X139161522Y-90524534D01*
X139224781Y-90719223D01*
X139317715Y-90901613D01*
X139438028Y-91067213D01*
X139582786Y-91211971D01*
X139737749Y-91324556D01*
X139748390Y-91332287D01*
X139839840Y-91378883D01*
X139841080Y-91379515D01*
X139891876Y-91427490D01*
X139908671Y-91495311D01*
X139886134Y-91561446D01*
X139841080Y-91600485D01*
X139748386Y-91647715D01*
X139582786Y-91768028D01*
X139438028Y-91912786D01*
X139317715Y-92078386D01*
X139224781Y-92260776D01*
X139161522Y-92455465D01*
X139129500Y-92657648D01*
X139129500Y-92862351D01*
X139161522Y-93064534D01*
X139224781Y-93259223D01*
X139317715Y-93441613D01*
X139438028Y-93607213D01*
X139582786Y-93751971D01*
X139734804Y-93862416D01*
X139748390Y-93872287D01*
X139839840Y-93918883D01*
X139841080Y-93919515D01*
X139891876Y-93967490D01*
X139908671Y-94035311D01*
X139886134Y-94101446D01*
X139841080Y-94140485D01*
X139748386Y-94187715D01*
X139582786Y-94308028D01*
X139438028Y-94452786D01*
X139317715Y-94618386D01*
X139224781Y-94800776D01*
X139161522Y-94995465D01*
X139129500Y-95197648D01*
X139129500Y-95402351D01*
X139161522Y-95604534D01*
X139224781Y-95799223D01*
X139288691Y-95924653D01*
X139315984Y-95978217D01*
X139317715Y-95981613D01*
X139438028Y-96147213D01*
X139582786Y-96291971D01*
X139737749Y-96404556D01*
X139748390Y-96412287D01*
X139839840Y-96458883D01*
X139841080Y-96459515D01*
X139891876Y-96507490D01*
X139908671Y-96575311D01*
X139886134Y-96641446D01*
X139841080Y-96680485D01*
X139748386Y-96727715D01*
X139582786Y-96848028D01*
X139438028Y-96992786D01*
X139317715Y-97158386D01*
X139224781Y-97340776D01*
X139161522Y-97535465D01*
X139129500Y-97737648D01*
X139129500Y-97942351D01*
X139161522Y-98144534D01*
X139224781Y-98339223D01*
X139317715Y-98521613D01*
X139438028Y-98687213D01*
X139582786Y-98831971D01*
X139737749Y-98944556D01*
X139748390Y-98952287D01*
X139839840Y-98998883D01*
X139841080Y-98999515D01*
X139891876Y-99047490D01*
X139908671Y-99115311D01*
X139886134Y-99181446D01*
X139841080Y-99220485D01*
X139748386Y-99267715D01*
X139582786Y-99388028D01*
X139438028Y-99532786D01*
X139317715Y-99698386D01*
X139224781Y-99880776D01*
X139161522Y-100075465D01*
X139129500Y-100277648D01*
X139129500Y-100301826D01*
X139109815Y-100368865D01*
X139057011Y-100414620D01*
X139035574Y-100422124D01*
X137212290Y-100877945D01*
X137142478Y-100875107D01*
X137134776Y-100872213D01*
X137033497Y-100830263D01*
X137033490Y-100830261D01*
X137033489Y-100830261D01*
X137033488Y-100830260D01*
X136878845Y-100799500D01*
X136878842Y-100799500D01*
X136724500Y-100799500D01*
X136657461Y-100779815D01*
X136611706Y-100727011D01*
X136600500Y-100675500D01*
X136600500Y-92089059D01*
X136600501Y-92089046D01*
X136600501Y-91920943D01*
X136600501Y-91920942D01*
X136559577Y-91768215D01*
X136480520Y-91631284D01*
X136368716Y-91519480D01*
X136231785Y-91440423D01*
X136079058Y-91399499D01*
X135920943Y-91399499D01*
X135849827Y-91418555D01*
X135768214Y-91440423D01*
X135768209Y-91440426D01*
X135631290Y-91519475D01*
X135631282Y-91519481D01*
X135051122Y-92099641D01*
X134989799Y-92133126D01*
X134920107Y-92128142D01*
X134864174Y-92086270D01*
X134839757Y-92020806D01*
X134851357Y-91963611D01*
X134849690Y-91962921D01*
X134851554Y-91958419D01*
X134851556Y-91958414D01*
X134851557Y-91958412D01*
X134917246Y-91756243D01*
X134950500Y-91546287D01*
X134950500Y-91333713D01*
X134917246Y-91123757D01*
X134851557Y-90921588D01*
X134755051Y-90732184D01*
X134755049Y-90732181D01*
X134755048Y-90732179D01*
X134630109Y-90560213D01*
X134516181Y-90446285D01*
X134482696Y-90384962D01*
X134487680Y-90315270D01*
X134529552Y-90259337D01*
X134560529Y-90242422D01*
X134692086Y-90193354D01*
X134692093Y-90193350D01*
X134807187Y-90107190D01*
X134807190Y-90107187D01*
X134893350Y-89992093D01*
X134893354Y-89992086D01*
X134943596Y-89857379D01*
X134943598Y-89857372D01*
X134949999Y-89797844D01*
X134950000Y-89797827D01*
X134950000Y-89150000D01*
X134033012Y-89150000D01*
X134065925Y-89092993D01*
X134100000Y-88965826D01*
X134100000Y-88834174D01*
X134065925Y-88707007D01*
X134033012Y-88650000D01*
X134950000Y-88650000D01*
X134950000Y-88002172D01*
X134949999Y-88002155D01*
X134943598Y-87942627D01*
X134943596Y-87942620D01*
X134893354Y-87807913D01*
X134893350Y-87807906D01*
X134807190Y-87692812D01*
X134807187Y-87692809D01*
X134692093Y-87606649D01*
X134692086Y-87606645D01*
X134557379Y-87556403D01*
X134557372Y-87556401D01*
X134497844Y-87550000D01*
X133850000Y-87550000D01*
X133850000Y-88466988D01*
X133792993Y-88434075D01*
X133665826Y-88400000D01*
X133534174Y-88400000D01*
X133407007Y-88434075D01*
X133350000Y-88466988D01*
X133350000Y-87550000D01*
X132702155Y-87550000D01*
X132642627Y-87556401D01*
X132642620Y-87556403D01*
X132507913Y-87606645D01*
X132507906Y-87606649D01*
X132392812Y-87692809D01*
X132392809Y-87692812D01*
X132306649Y-87807906D01*
X132306645Y-87807913D01*
X132256403Y-87942620D01*
X132256401Y-87942627D01*
X132250000Y-88002155D01*
X132250000Y-88650000D01*
X133166988Y-88650000D01*
X133134075Y-88707007D01*
X133100000Y-88834174D01*
X133100000Y-88965826D01*
X133134075Y-89092993D01*
X133166988Y-89150000D01*
X132250000Y-89150000D01*
X132250000Y-89797844D01*
X132256401Y-89857372D01*
X132256403Y-89857379D01*
X132306645Y-89992086D01*
X132306649Y-89992093D01*
X132392809Y-90107187D01*
X132392812Y-90107190D01*
X132507906Y-90193350D01*
X132507913Y-90193354D01*
X132639470Y-90242422D01*
X132695404Y-90284293D01*
X132719821Y-90349758D01*
X132704969Y-90418031D01*
X132683819Y-90446285D01*
X132569889Y-90560215D01*
X132444951Y-90732179D01*
X132348444Y-90921585D01*
X132282753Y-91123760D01*
X132249500Y-91333713D01*
X131200000Y-91333713D01*
X131200000Y-62524000D01*
X131219685Y-62456961D01*
X131272489Y-62411206D01*
X131324000Y-62400000D01*
X170276000Y-62400000D01*
X170343039Y-62419685D01*
G37*
%TD.AperFunction*%
%TD*%
M02*
